<mxfile host="65bd71144e">
    <diagram id="eUlHg9EsbeWBfYuxrIJG" name="Page-1">
        <mxGraphModel dx="547" dy="518" grid="1" gridSize="10" guides="1" tooltips="1" connect="1" arrows="1" fold="1" page="1" pageScale="1" pageWidth="1169" pageHeight="827" math="0" shadow="0">
            <root>
                <mxCell id="0"/>
                <mxCell id="1" parent="0"/>
                <mxCell id="2" value="" style="rounded=0;whiteSpace=wrap;html=1;" vertex="1" parent="1">
                    <mxGeometry x="50" y="20" width="320" height="490" as="geometry"/>
                </mxCell>
                <mxCell id="3" value="" style="endArrow=none;html=1;entryX=1;entryY=0.25;entryDx=0;entryDy=0;" edge="1" parent="1">
                    <mxGeometry width="50" height="50" relative="1" as="geometry">
                        <mxPoint x="50" y="170" as="sourcePoint"/>
                        <mxPoint x="370" y="169.4999999999999" as="targetPoint"/>
                    </mxGeometry>
                </mxCell>
                <mxCell id="6" value="Heap" style="text;html=1;align=center;verticalAlign=middle;resizable=0;points=[];autosize=1;strokeColor=none;" vertex="1" parent="1">
                    <mxGeometry x="400" y="100" width="40" height="20" as="geometry"/>
                </mxCell>
                <mxCell id="7" value="Stack" style="text;html=1;align=center;verticalAlign=middle;resizable=0;points=[];autosize=1;strokeColor=none;" vertex="1" parent="1">
                    <mxGeometry x="395" y="210" width="50" height="20" as="geometry"/>
                </mxCell>
                <mxCell id="9" value="Method Area" style="text;html=1;align=center;verticalAlign=middle;resizable=0;points=[];autosize=1;strokeColor=none;" vertex="1" parent="1">
                    <mxGeometry x="390" y="410" width="80" height="20" as="geometry"/>
                </mxCell>
                <mxCell id="10" value="" style="shape=image;verticalLabelPosition=bottom;labelBackgroundColor=#ffffff;verticalAlign=top;aspect=fixed;imageAspect=0;image=data:image/png,iVBORw0KGgoAAAANSUhEUgAAAecAAAHlCAYAAADPxTRfAAAgAElEQVR4Aeyde2xU17n2kdITkfSStAlzsT3xYDPYsfGFsY0Hxz7jAIbi2DEEHPwZKAESLoI0btIAohREaPiOQA2BrwVyvkDSVCacEgfRUErqU2gORVSfhSUsiChQUeKSxEQJQ5RIk7+eT2tfZvbes/dcbI899jx/WDOeWbP2Wu/67fWs912XPcZmd4F/tAEZIANkgAyQgdRhYAwbI3Uag23BtiADZIAMkAHBAMWZkQNGTsgAGSADZCDFGKA4p1iDcNTMUTMZIANkgAxQnCnOHDGTATJABshAijFAcU6xBuGImSNmMkAGyAAZSBFxzkGntwnwa/5KivAEhVMzmt2Eqt/cxtKjmr9XDmi+HwaYy4/g8Y7bWPL675EzmG2VrHwHs4zMa3jZo/1p/1HOQIqIswutGW6sEn/ZFQj6m3AjJ3tEwpez4SO9gGrFNPT+KirKExVTHxwlK+EqF3+vwi+EOhXEWdTp8DnkDeaNIsQ5GfkOZhmZ14i8P+mRJtrvMP1wMZMy4qwaYMvEGYC/BscdIxQKz1JFQGUhfXiLEOuP4J+rCqt4bYVjQJ274kUPtziLOniWInN8EtoqWfkOyO5JqCfLQ5EnA2TAhIEUE+dcnClvAopHT0hb9qQ/QlXtYHbsKSTOJlCpAy2+DmabMy/yRAbSiYHkirPDjV25leib0qDMJzci6K3GcZcFZJleBPyN0UPaGQXoKqpFoDKcJ6bUoDPLPM/pmZPQU1qHYLUyn11dj0CJF3udkekTSRsvJPGJcyvyXjiP5t8p88m/+whzNu2Dy6JONnu84uyDe9k5zGlX8u34FPNeOYIJOk93Hkr33MbS353DwxFC+xx8r9/G0td/D5f2uyXnDaH7aIOPOrifPo95h8Nz5UsOf4TZL7waWb+E8nXB8e/tmPH6p1iiTBcsev08fHNbI0bhxa8oUwCTX0XVno9C6Vv3/B45ljaO5CPeNmc62o4MkIGBMpA8cXbmo2dKI1BZix5PPrZneHAgtxw3Kmejb0IuyrWdvfJ+e94soKYGHdFC2m4vbuSVosOdhw0iT08VAjVNQJkXGwx5bpngR9Bfj768ErS7crHKlY/jE6sReKQOPdluXSeeSNpEjB5bnOdh0s5PpdD3rLZ9mFD+Eh5uO4/mjttY9MoBZBrqJF87PnHOeVGE1D/F45vakffvLyLv6b/gcSHUB9/XiZJj5UVJbGc8abihpvwe847expwfr9TZyja+NRS6V8P2VpEB14+vKmU4godnrYRr1j6UbRD1+wg1db5+52urfV8q25LfnIfvyZfgfrwd/n3Cjp9ixpP6fCVxbv8I89pVW7yE4i1XsejobSzY9JK+DKb2NtiFaWgzMkAGksxAcsTZkYszZY1AWTm2G4XW4TIVZpvdg64p/QlpK6Fwozg7inCjpgnBh/MirlceUaYE0ibYIDHFuf4vWHD0Nma06AXFseQ8Fh218kjjEOf8djx29DbmvfCc/iaqfR/NR29j9hLN9bIOYPbR21i0/VVdWllYL6Is31qcotdvKSr23cbS37wfuZo7S3N9E5tGzzfs7U/Ser5ZO+D/baSnL4nz0U8xe4nWq94BvxiopMK8vUn9ExkAMq01n7QNbTNSGUiKOO8tqAdqatGZkQAYrnIEY4W0zToxVYTzPDphsUkhcuFRV+BArHIkktasDFE+iy4yLuRtEd7eeUwy5pHVLgnmY6vn6eslpYstzo7Vwhv+CFX/bmyDTaj5zW20btmhydcH2bv8i2bV9UpU/OdtLN3THnXxWsz6bZO92cc37INLF043lkv/f/R8D2CWCGXvjNxKJttTvxpeqlvEACG2DUfqTc1y61miPWiPkcjA4IuzswR9IsxcmB/hsUYzkBzSrkK70avViFa5Mw+dhbUITG3U74n2z0JXxDy2G+2Fs0Jz3ZhSiyuePKwyzT+RtImBHl1kXLIoKnOmuj3MymfNGzZpRFS9dmxhka8bnueNyNvoMbacw6Kjn8LfoFyj/PeYc/Q2HltpNjhQy+FCrPrZsjah7JXwPO+i31zFtLU7Ygp11HwV79/MNma/oziH2yvaPcjvaCcykDoMDLo4r5pQC/hnm4hltEorIe2iAktBb832SXPLQW8lOqX5ZrEvOhedpU1AuRdbNCKuBazckYsDngrcKFcEPcpK8ETSaq8R7b2ZWGjTS8LRcR6l0v5l7XYr+X2mxyz8G684f4Sa+sg8pb3SBXV60c/ahxm/C3vUckj7PIq1YWMTG8eqX6iu41sx4cnfw68uyDp8HsWTrJmImi/FWd92Ju0Ssju/o63IwIhkYNDFub1QiGB19EVdRliUkPYVt0Vn7SjAlaomoGgSWrW/FSFtfxMCE3PjML4HXZXRhTzcoSWS1qLMSjmjioxdDWtHn9cNl0u9VmxxlsPaGk9YazeL9w9vv42l7SK0PQ9lv45vPjZW/SLL7oJt7jm0Hr0NM89XTR89X3mO3DqsrbcnPWeVG76qfPGVLKQ6A4MvzkViy9K0hOabd+XPjiro5e4qKTxtFO8NnmmAfwbOZOpBm24Wus4oRZ+/CcECfbg9kbT9aczoIuOCTVkQ1rzRGL72wTHezGsWdY0tzjZlQdiiV9sjVnw7xhu8ZlWsn1RC208ekRaTGRepmdU/Vv0cHpOweN370iI4/by3vg2j59uPBWGcc45jAKtvA7P25me0ERkYGgYGXZyfyKmR53m9lehw5WKDq0DevjTV2puWve0Z6HF7pO1OHZ4CbFcFw+6CmmewuBS7MnOxy12KnsmzEJT2OvtxXLNneUOu2D7ViEBhaWj7VIfHh4DY51xWjl0a4U4kbX+BjC4yopFbUfyKWDR1G83/8Xtpu9GEJ4/A/+tPsURsedLYIVwGHyb9h5hP/gjTnt4B97/vQGnbAUNanzIffButv/4LSh9/Ee7HD8D3Hx9hyeHzmGS6Altewdza/qm071m3ElpbDs0paOpWqtAJaCUaMfbJ89at/3kOvsU74C5/EXmLf49ZYkW1WKxm3EoVb76iLHXhrVRlUt3UrVSR+dJzHprOJMwnr0dbkIGBMjDo4myzu7F3Yg0CjyhzvOLQj9JKHHflYLq2g9e8L88qwQ2xJ1o8+EJKX6oTZ5sjF50lyuKumgYEvT4cd7nR6vYh+EiNTpxF2o7CaQiq1xfpy2vRk+uJXAyWSFpNeRMxemxxlgVaHEKiPahjwb5zKKs37C/WlmGS/kCNJb+9iLKIldnKISSSGMqLw8RBHVWLX7RcgT1hkzxQMG6r0tZZrpPFYjOdh+qDq/4Ipu37CIs6lPQdn6J53zmU/nuk9x5/vvKNb3YIScWsyHwpzuwotfzyPXkYCQwkQZzZ8COh4VlGckoGyAAZSF0GKM5ab5TvOS9JBsgAGSADKcAAxTkFGoGj19QdvbJt2DZkgAwMBwMUZ4ozR8lkgAyQATKQYgxQnFOsQYZjhMZr0jMgA2SADKQWAxRnijNHzGSADJABMpBiDFCcU6xBOHpNrdEr24PtQQbIwHAwQHGmOHPETAbIABkgAynGQNLEuWzFPpy93otgMIDgpYNs+BRr+OEYCfKa9EDIABkgA/ExkCRx3oaznwcQvNWNE/u3YcXCmRRnijMZIANkgAyQgTgZSI44r38ft4IBXD1k9eCG+EYOHGHRTmSADJABMpCODCRHnO0HcVGIc8d8jpLiHCWlI3ysMztdMkAGyIA5A0kV51unjY9BNC8EG4d2IQNkgAyQATIQZiBJ4rwJp24FEOzeTc+ZnjMZIANkgAyQgQQZSJI4z8fRa1ylzVFgeBRIW9AWZIAMkIH4GUiSOPtw+HIAwevvYEmCowU2XvyNR1vRVmSADJCB0cnAoItz2Zyl2PbGOWm19p0z2xjK4OCEDJABMkAGyECCDAyqOG86rRw6Egzg1oWD+HHl6BzRcKTKdiUDZIAMkIFkMjCo4iy85hXrd+DwmWu4IwT6ND3nZDYe82bnQAbIABkYnQwMqjiHIVEWhHHOmaGcBEM5YYZG5w3H+rFdyQAZiIeBJInzSpzo5WrteBqAaXijkgEyQAbIgJGBJImzvM/5zrkd9BzpOZIBMkAGyAAZSJCBJImzfHwnTwjjaNA4GuT/ZIIMkAEyEJuB5Ijz/HdwNRjAxbdiF4CNRBuRATJABsgAGdAzkBxxrpQ95zuX38G2ZfNRlqA7z0bSNxLtQXuQATJABtKLgeSIs92Flv3ncOurAIJBLgzjTZVeNxXbm+1NBsjAQBlImjjLBfNhzrKVWLFwJhcDMHpABsgAGSADZCBOBpIszhw9DXT0xN+TITJABshA+jFAcY5zFMObI/1uDrY525wMkIHhYoDiTHFmmIkMkAEyQAZSjAGKc4o1yHCN0nhdeghkgAyQgdRhYFDE+ZHaHyK/0MuRF4WeDJABMkAGyMAgMEBxHgQjcrSZOqNNtgXbggyQgdHAAMWZ4sxRLhkgA2SADKQYAxTnoW4QZwGuTGkEplZi71BfO6WuVwnb3h44L9yE45dPj8yO4f+ew53PL+HE+tHmqcgPrpEOEBKHCPEgoZHJZ0rd76PtHkl+fSjOQwxwfU4N4G9EsLAATwzxtaVQjyMbba4CHMjMHuYO5+ewn70JZ3cP7AsHEfSan8O+5eWhqdtb3QgGe3HqZ4NY/uFgIuKayuFBq1dixerdOHuLp/yNhjAp6zCy7lOKc0THlPwGbHVmo3wYrituziekwcEMnMlMfj1jdgbli2ErHMxyvAz7327C+e4+ivOg8aV40ZcODo1NB63cg8kV84p5L7PdBv3+oDinFVTZOF7SBJR7sWU01nv1STgu3IR9S+Wg3yimndOo9Zy1YkRxNm370Xj/sE5D02/EaWeKs2ooRxFu+BvQk+3GXk81AlMbAX8TMKUGnVnazsoFmyMfPVVN8veTS7DKYfiNQfwOFDbIaUV+Up7l2K5eV/PaXiS+r0K75jO5Y3DjeEkjUObFFodalmzsmlCJG97ZCFYr+VbXI/BwPloNvy/P9umvr5ZDvE4uQZshvbjmKlcJrnhnAzUi70YEvZU44FSv3c/XpiOSeIp5ZvXP8Yu55jfEW9fh/NMR2GbuhP3YZTi6ld/8+Rhsudrrr4H9z+H81Hzl1+uwP98foW7FnpPduHVHmW8NBnDr+jkcfblVX9aQOLdiz+lL4Qe9iHnozT592h9uw9EL13R5Bm9dw9n/uzLyqW1Svt14s3Jl7HwTSSu1sw8vHjqH3s+Vun3Vh1uX3sG2Oq1Nte8TEWcfdp7pleao73QfxBwTrih0WtvyPXmwZoDirHQgcri3DoGyWbiRNwm7Mj1oz6+VRa2kSD8/7MjG0ow8dJU3IfhwCc546xEo8qLjoRJceaQJfZ4cXcf8hNONVRlurMoqRZ+/CYGJubrvVUCtxLlVhKJrZuCMbpCQg+MFPpzJnYQDLjc2uCahq7ReEtIrbn2Dlzvk62/xiPpMwxmXUp4MN5aGxF79jRt786YB1XW4MlHYIRe7cqsQECJdbLBDop1v4QLYZj8t/dkPX4fzwlnYdUKrlkEOTzv+5zIcZ7tg37EbtuaXYf+TEOHLhjnq6Uqe+6SQtuPIvtA1bLMXmNpZtbf5ayvevNSHYLAPvf/vPbz20jrsfOM9nO/tQ/DaO2jR1lkSxj7c+rgPd659gMO/XIdtb3yAXiHqn3+Abdq09m04cakbpzoOYuf6ldi2/x2cvS5f5/yvDEJula94ypsx30TS2l3Y1CnEsw+9Zw5h5/p12HnoA1wV5f34fWyqVO2vfU1EnOVHxcoLybrxpq7+2jz53pw92oV2CTNAcZY6EDc6JzcBU2twXDcXW4Arwrs0eMISQBmy0Aan1uHKeLc0h1zurgJqatARIXiywWPN95qKs7MIN2oaLQVdB7O4vr8RRnGW0yghbW+pqaes5rNl4gxgahXaDV7y3oIGczv0qwOOMTf8/GnJw3YcOaj3kl+/DOeFHthnhwFWy21TQ9rr+uMph/Mr239O8vxund5k8Gh9KDOKlySMAdy5dFAn2ptOCwGMQ5wqD+GqWAndvVs/iLDId+c5IeaGfBNJO1++Xu/J5/TX+9n7uBUM4OJbhkGC1LaJiLMPmzqv0XPu1z0RZjDENPPRc5pm9qA4iwZ3lkgerdHjtTkm4YYQ58KCCEgkEfPLoqku7lrlmoSO7ByLxV6x53sjxVkJZ1uEno038fa8WdaDA6s6aoHP9CLgb8AVd+RK7g4RchchfG36/r5XhdRibth++CacXacNXvXTsuf85yMRbSHsYP6bxDu8Ny+IcO8lHJ0fx28lYYxcrR23ONsVT9O42CqRfBNIO6fjkry6PGLrlyzAd87tMLFtIuIch836ywx/Z9I2tLexDxxN/1OcxfzqBBHurUWnwVu0uSoQ9DfhRo5RrHJxprwJKC2JmN+1hEOa07YOaYvfGcVZDmfX4LixXHYXNuRUSPPN8pywMucsBhIWoWe5jtPQmWF9Q0fMjYv8NH9W4XjLOlt1qGI+2TKkvRP2rptwHDZ4k7Pl+WrHq2Z7oi1+Y3V9y88VIbr1PjZZptHYLwFhtNlnynO9t4T3G57LNt1DnEi+CaSVBw2Ga2vLYhwkSDagOCfMdzzsMA0HGzEYoDjblZC2iVcohXLNwtSSh9loItqajttg+Fgh7QhxlsLZDbgx3q2H2JGLTjG3XFOHGxNLpPlmaT7b7UPQMqRtXcdQx+MowBUxr1w4SZ4fF3Pkhr9Wi3B9KA9Dnc0/jy+kbX/eYMv/Iw4ssQhpK2HwiN/EVR7tdZInzvJcbyA0N71C2kP8jhzWNopiAoJrSyCtLM69OLVD7F82+Vs4U8+aZD+KsznHWm74njYafAYozsrccd8EgwhK4tiEYEF+RJhaCmmbibalGCjiGGu+N69OWa0th7ODRQURnrkcTjcuDnNhV75YWV2FdjMBVUPaxjpqyysNOKJ79oNyA6pCajo3XBkOT2vLZldWZIvV27rP5RsiFNI2+c4sfbTP1LD2YeP8slnecQujlegPR1i7D2d3JNKRJCbOZT/dh1Nn3sdrPzWbv07kukwbjVN+N/r5SHtxbvNMA/x1hpXQbrQX1ZsujLLZlZC2RfjY9KZRxdGwituYVhLeci/2itXZJouyQtc2LlATR4JWNgFFBREDCXENOaQd4+CRrHIE/E0I5nsiBHC6meCbiVUcn4WE1GyVdu5uJaS9U18GZQtWtJD2YB08Mue/xLxsAFc7DNumzOo2UHGuUxaEDZHnbFMWhAUvH9ItYBOMPFpn5jWLDjARcd6Gs6EtWuewx8xm/EzPNu1Be1gwkObinINOrzKv6q1EhysX27NL0eMVYeNI71TaEvWQLGJ9nlysysjBKgvhUrcvidDw9oliADADXZotTPUmDSKJc+UsBGvqTRdl2ewedAkRrpmBHrcHq1z5OD6xGoEps6W58eDDeZhukq8szo0IFBRge0YudrlL0ePJ098U6t7tmjpcyc3Dhsw8tOd6caU8zpXiJteVBx/qViexhWqfJL7OYweV7U5rYNN6qOvkVdoR4WkppN0FuzZt6HryfLOzqwv21T+Bbelu2F87CXtzf0fW4a1UV8+8g9dekrc9nbrUiztGUYtbnF3YdkbZnqXbwtSHO9K2q3N4bYXG00wg30TC2ja7D+q8s7r168VfHsSJC70I3unGm6aL4Hx4rVvMU/fi/KEdeHH9Dhw+edBiTl4jzsZV5aH26m+78HfGwTz/H91MpLc4KyHtG54CZY+wEL4GBIpKsde4CEss6JIO5NAskrIKI9s1oq9ZUKUurgrmRXqn4kaTQ9bmoXT1RmzNrkTgEeWAlKl1uJFXgA1iHnpyAwL5HlPP2Sa+L5mlLO5qRLC8Fj05ufq923YXprtKcWOKemCKki7XYzkAUcsU9VURXP3hIOqhIVrBVULafzupHzSoIe0/ths+19yY4hrqISXd1+E4dgz2Bs33iQqDOPzD7BCSHYYDQxIR0cp1OHyhF3fEXmWxCOvWJZz61Uo8uvk9XL1jCDUnkm8iaSU7KIeQiPOylcVgdz7uxqk31uFRKzst3I1T1+TDRdSyH41Y8S3b+8cn5a1Uwe59hq1oA2gPq3Lxc+t7grYZ8bZJa3GWQ9o1OG7h/UYVHcI/4uFn+w62YPrw5iUh+n04+/Jg5838yGt6MZDG4qx4tyUDPPWKIk2RJgMKAzvkOefe9/Bj2oT3BRkYEAPpK87K6uTIPczpNTrjaJztPWgMKCeNXf2v+QPqlAatPBQHtsMIZiBtxbltfAWuFHqxlyFt3sAj+AamkHFwRQZGJwNpK84EenQCzXZlu5IBMjAaGKA402ui50wGyAAZIAMpxgDFOcUaZDSM+FgHei5kgAyQgYExQHGmOHPETAbIABkgAynGAMU5xRqEo82BjTZpP9qPDJCB0cAAxZnizBEzGSADZIAMpBgDFOehbhDxkIopjcDUSuwd6mun1PUqYdsrHgN5E45fmj2jeTSN/pWnT2menXzr9CZ2hinF42jijXWh56zcXI/U/hD5hV52NnF0NvXiiVP+RgQLCyLOth4SoBzZaHMV4EBm9jC3189hP3sTzu4e2BcOYmdS83PYt7w8zHUz1mcmWkLPT5af4UxxNtqI/w/J/R9HH8VypAaL9JyHAdZWZ7b5AyqGoCxPSIODGI+PHIJySB1A+WLYCgfzRngZ9r/dxGA9PjI5nZTsRVOcB7PdmVdyWKVdh9OuFOehEqKUuE42jpc0AcbnQadE2QahI1h9Eo4LN2HfUplinrO2bhTn4ezweG0ti3yfyjxQnFVhEo+E9DegJ9uNvZ5qBKYqj2WcUoPOLAPE6rOPxeMgJ5dglcPwG4P4HShUH8OoPG5ySjm2q9fVvLYXie+r0K75TIbHjeMljUCZF1tCx41mY9eEStzwzkawWsm3uh6Bh/PRavh9ebZPeVyk5nGX6qMsJ5egzZBeXHOVqwRXvLMB6TGZjQh6K3HA+BhNk99Fhb3piCSe2sdHOn4x11xI37oO55+OwDZzJ+zHLocfCfnnY7DlattjDex/Vh9BaXy9DvvzCQj1yx/gTjCA3uMrI8pUtv+c9IjF8/s1z10W9a8zPAryTi8untyNFkvbxCHO8T4GUjrLuhuHpcdOyk+Dunp8E1bsP4db4tGUX/Xh4luthrooj4z8XHlk5Fd9uHXpHWyr09pU+96HnWfkx0Xe6T6IOZb10v6G76PeB7ShgUnyYsYLxVm5UeRwbx0CZbNwI28SdmV60J5fK4ua8clVjmwszchDV3kTgg+X4Iy3HoEiLzoeKsGVR5rQ58nRwfeE041VGW6syipFn78JgYm5uu/VhrES51YRiq6ZgTO6QUIOjhf4cCZ3Eg643NjgmqQ8k7oRV9x62Msd8vW3eER9puGMSylPhhtLQ2Kv/saNvXnTgOo6XJko7JCLXblVCAiRLh7gE7wKF8A2+2npz374OpwXzsKuE1q1DHJ42vE/l+E42wX7jt2wNb8M+5+E+F42zFFPV/LcJ4W0HUf2ha5hm73A1M6qvSNft4WeqrRC14H68Fq3ELtz2KP7fBNOfSw+F4K8D9vW78DhM9ckgb/TvdviecaDLc59uHPrGs6+sQNvdvcpz4ruxtFf7sDRa+K50e9jk6bMmzqF0Pah98wh7Fy/DjsPfYCrdwIIfvw+NlWq9te+yuWVn/3cjTc1eUXaT/s7vqd9yMBAGKA4S52NG52Tm4CpNTieqQWqAFeEh2nwhCWDZ8hCG5xahyvj3dIccrm7CqipQUeE4Ml5xprvNRVnZxFu1DRaCrqu8cX1/ZHiLKdRQtreUlNPWc1ny8QZwNQqtBu85L0FDeZ26FdnHWNu+PnTkoftOHJQ7yW/fhnOCz2wz9a2kfJeDWmvS8BTNin7ptNCvK7hxGrtNXbj/FcB3Dm3Qyf2c/7rkok37cPOc0Ikr+HEs9o81PeDL87ndyvevOpxb5avJddFI6jzD+GqiAycfE5XD5vyNKmLbxmiApJ9fNjUeU2qJz1ntQ35qvYXfE0eCxRn0QE5SySP1ujx2hyTcEOIc2GBvjOzuyCJmF8WzXKlk1/lmoSO7ByLxV6x53sjxVkJZ1uEno03xva8WdaDA6s6agVKeoxmA664I1dyd4iQuwjha9P3970qpBZzw/bDN+HsOm3wqp+WPec/H4loC2EH89/048ZRH3vYoXns4a9ESLsPZ1/W5/fmBREa1oifao8d1uFxm32wxbkXp36mlEsVZ+V/ozjP6RCDiV6cWq+vh82+CaduRQ4+jHzxf6Pd+D+ZSB4DFGcxvzpBhHtr0WnwFm2uCgT9TYh85nMuzpQ3AaUlEfO7lrBKc9rWIW3xO6M4y+HsGhw3lsvuwoacCmm+WZ4T1swlW4Se5TpOQ2eGNUwRc+PqvLTyahWOt6yzKlbGVzGfbBnS3gl71004Du/Wi/Bseb7a8arZnmiL3xivG9f/z+FEbwDBa++E5lf3iJD25x9gm+73sqAZw8aSLRSBN1+RPXziLIu1Mtes2XMth6wDCF46qLe5rr7W3CTc/syXdiYDMRmgONuVkLaJVyiFcs3C1JKH2Wgi2tYdWKyQdoQ4S+HsBtwY79Y3oiMXnaX1QE0dbkwskeabpflstw9By5C2dR1DHaujAFfEvHLhJHl+XMyRG/5aLcL1oTziuuHiC2nbnzfY8v+IA0ssQtpKGDziN3GVx3Aduws/PinCuJdwdL74Tg5pRwrtSBXnXpzasRIrQvuuNe8XztSz1k/7JcZDpP35e9qEDLhAcVbmjvsmGERQEscmBAvyI8LUUkjbTLQtOzNFHGPN9+bVKau15XB2sKggwjOXw+nGxWEu7MoXK6ur0G4moGpI21hHbXmlAUd0z35QbhhVSE3nhivD4Wlt2ezKimyxelv3udyJhULaJt+ZpY/52er30BsM4KoIbUshak3oWHONNy9FD2tLv9ekl687fJ6zHNbuw9kdiXX+ZT/dh1Nn3sAzYBUAACAASURBVMdrPzWbk04sr5i2j7AX86fN0pOBtBfnNs80wF9nWAntRntRvenCKJtdCWlbhI9NbyRVHA2ruI1pJeEt92KvWJ1tsigrdG3jAjVxJGhlE1BUEDGQENeQQ9oxDh7JKkfA34RgvidCAKebCX4/O9GQkJqt0s7drYS0d+rLoGzBihbSHtyDR1aGQtuvicVdve/hxyb1TdqCsDe65YVmv9J2Sj7s+X9ioZlmjlsKn2sGDjHmnG3KgrDg5UMRW70erbPympUV7CIMHrFaXVs+vjfez/yfTAyEgTQX5xx0epX5Wm8lOly52J5dih6vCBtHeqfSlqiHZBHr8+RiVUYOVlkIl7p9SYSGt08UA4AZ6NJsYao36ewlca6chWBNvemiLJvdgy4hwjUz0OP2YJUrH8cnViMwZbY0Nx58OA/TTfKVxbkRgYICbM/IxS53KXo8eXoBVPdu19ThSm4eNmTmoT3Xiyvlca4UN7muDKa61Ulsodonia/z2EFlu9Ma2LTbd9bJq7QjwtNSSLsLdm3a0PXk+WZnVxfsq38C29LdsL92EvbmgXUMqpd553OT1c3qtSs1W6mO7cCLmq1UIgxepqbTvSpz2ncu4dT+bVjx0j6c6Ngdmt+WbKaI6J1Lh/DjOhfK5mzC4Qu9CIq9ywMRZ7sP6rzznWsf4PAv1+HFXx7ECZH3nW68KYXxjXbTiLP22ro6GX/D/wfSKfO35EcwkN7irIS0b3gKlD3CQvgaECgqxV7jIiyxoEs6kEOz+MoqjGzXiL5hURWEd5oX6Z2KxpBD1uahdPWGbc2uROAR5YCUqXW4kVeADWIeenIDAvkeU8/ZJr4vmaUcRNKIYHktenJyI872nu4qxY0p6oEpSrpcj+UARC1T1FdFcLUHj4TfawVXCWn/7aR+0KCGtP/YbvhccwOLa3QrB5B0X4fj2DHYGzTf90dIVC8zYluVIV+zQ0iObcOjUa5Z9tNDuPixsic5GMCdjz/AHkN5W9SDRCSPtRdXT+/GikPCox6A5yyVSTmE5FZ4Ydidj7tx6o11lmWW5+ADCHbvsxhwGGwSpe5RWeHvrBmnbdLONmktznJIuwbHLbxfdiTsdMmAD/LceuRWMtqG9wcZSB4DaSzOindrPP2LI9S0G6Gyg4nWwewInZpmNu9O20WzHb8jH/1nIH3FWVmdHLmHuf/GJIi03ahjQD2U5b80h7JwAMsBLBlIOgNpK85t4ytwpdCLvQxpJx2yUSdY7JjIDBkgA0lmIG3FmYJBL5cMkAEyQAZSlQGKc5JHP6na8CwXOyUyQAbIQOoyQHGmODM8RQbIABkgAynGAMU5xRqEI9nUHcmybdg2ZIAMDBUDFGeKM0fMZIAMJI0BHzb9anfEcanaDr5s827sWZiI6M3EtmPduHVHHCSjOb41aXVIpGxMq23bgbynOBNodsxkgAwkhYFWvNbdi6A4ZS7iGdqqiD2Hw9f65ONT4xRo+Uz3PvSeOYSd65dijumxtmr+fB2IQA7nbynOSbkpjTdENjomzUawpBQbYlxPPrVMc0SoP84TzBy5ODO5Aajxmz7/eTghG/i1K2HbKx4ZeROOX5o9z9lob83/q4/B8bfLsK/WfBajDeIu7+vfx8YvvovGDUnIe7DKOBT5bBiHtV+MxcLXR6Edfnsftn4zRvN3D+b/LJ56tmLPOSHMvTi1OcbTvCo34cT1+AX6zQsBmD5HfCjamtcYsoEsxXkoYBPncvvjexzjdKf6HOV8dE1pAuI9wcxVIT38At5SbBmKOg3pNX4O+9mbcHb3wB6ndxES2Leuw9l1Gnazp2ANtA5Sxx1vZx1Ph56CaeoyML3rO1j/9V2KQP0bNn5yH+a/nhnupH72AF74Zgye+W0Kln+gbVyXhQmrM+W/d7+Hrd/E194tHZcQDPbh4lutYTtFK4t4iIo47/zj97EphicsPbzk8w+wM1p+/C4+u6ewnSjOQ9A4T4hHQPqnoTMjgc6rHyeYPeHMNn0qVUiohqCuSbtW+WLYChOwn1RX+YlVjsO7k3OjjnZx/uk4rP5yDLZ++W0sPGlHxYZMFO9/EAv/NRZbv7wPtepAaTSLs/aeibe91aeKde9O6EEhZdKzwwPoPf5cVF5f7BQeueYBKNoy8n1U2yWtf0qC3SnOSTCqHoBsHC9pgvBo2xK4lvSEqpoadPAEs/7fbM8rj6BcV9n/PKK1WbyddbQ8kvSda1kGKt5+AM/81d7Pumdg7id36UVYU1b3wqxwvhTnsC3sLuWxnNdw4tlEB5PzcfhyAMHPP8A2ja31/YkLNum53ddwIhlTNdGuy+907RzRLoNsH4qzalAp9NyAnmw39nqqEZiqPJZxSg06sww3mRKm7vPk6Bsr2wf4RR6a9GraiR45X/Vxj2b5qmWx5+JMeRNQXBTxWEctEBHz0zHEvNzpwfGHa8OPnKyuR6CoBNv7OwBYeAwOMQ/82nq9HUQ9Vp+E48J12Lcs0H/XchD2P10OP+LxbBfsaw1pxO+bjkh5hx8veROOX8zV5xWylws2ke/p69K8tDQ33b4b9sM3+xnSzkLFyfvQ9uW3QqHc9f/8Puq3awRJXDskzlmoOP3dcOhXzENv0TAg0s52or7nO1gfyvMubP7sO1igDQ+r9ZHyvQ+1lZnwxcpX/GaFHQv+ORabdXOjyjzp1/fDp+arvOa9/X2s/UKp29d3o+3DcfDWGcq7/35s/uYurP6doc6GvCQeNeKc9/b9Ybt9fS8W7o/8/YQ3foDVn2jKa1UGewbmfzYGL5zOgHPDOCz75O5Qe7zQZYdbV5ZE0ip1XehA44f3KnaL0h7qdULtbbCV+r30qoSne9/DCt3n0X4T/k59jvjZHeHPtPe89F7ysLlKO8Iu/bB3KudBcVYaVA491yFQNgs38iZhV6YH7fm18jOQDfO+VmHqvQUNQJUPBzRiJ6dtQLDSJN/JJVhlBpSrHEF/I2I9lCM8P12AHl8TUFRg/jxnuwut2T4EahoRnFyJzmwPVrnycTzPj2ClP3LwYVYms8+sxDn3ZWmO2PHuPo2YVsL2ao8s5keOwL70adg2nYSjy0JACxfANvtp6c9+WIjuWYt540rY/neXnK94jvPqn8D2/DE5XzFwOLxTU4YoHV6oflmo/VCIwN1o63oQvpcyUPGGEsr9xzi9IEid9Vi88MlYbPzHDzD9lQwUv/EDrBWh4C9+AG8oT3FdJxo/vB/z31XDw+Ow4J/ydZb82lAui3zbvjbJd6Edz4jrfXYfGvc7MeElOxp7RHkeRMVPMuGeq8+78L/vleq29q/jULFBeNeivHdh6ycPoFgz1+nrFmX7HqZrPrPsyBRxfuGTe7H5s/ulchS+Mg7LPhPz1N/DzPn6Mrje/j5W//VBTBfl3eBA7cn7sF4MLP41Dnk6m8mCu/Wze/HC1/dg2Uk7ijc4UP/hWGyNGDgkktYF23w7lkXY7R7JNs/8NnJAIdU9HnGuPISr4hnd53YkyJ1iI+VBI7c611n/fvP7uBXsw/ndertato/OpvzNSLETxVkC143OyU3A1Bocz9TCW4Ar/iag3KtZZKWkjQhT56OnqgkoyNfcVFb5etBVacw3fN3tebOAGF6wDjBpMVgjrrjDeWi/L8/ySsIcyPNEzEmXawYS2t/E9d5UnCthkxZhnYVd27FvOWvuSb9+Gc4Ll6Ms9HoZ9r/dhFMn9Jp6KqHrCO/9F12SF21/XpM2nk5K8hiFt+bUtKOSh7Y+Ii+psx6DjR/qvbji06KTvw+1sa5Xaccz34zB5m5D6NkiX+85IUr6fL1/FZ99B/Xq/K90TScWfDEGG435zh+H1d+MQdtJzWIukV4S17s0C7pESFsI/gMojFWH0O/HRAi87e34F1DJNvsOGnWhWkVwv7kX87WRCKUewqMOc5pIWhcku319P6p1baoMzKzqHY84q+J6epOmbIkweBAXLcV9JlrW78CJy30IBi/hsGHQE7ZFItdj2lS1G8VZdC7OEvT5mxARpnZMklZZo7AgfKNZpTULaatpJ7jDv5c6uwJcqWkCTD1nj7xKO0ZIWwvUrvzZQE0V2s2E1pGPnqnytRKZ89bmb/neTJzVcPbzmnneXGVh1rGDBju4YFPFudmik5Dyuwn7Fk1+qmAoHrrzT0cM+VaGQ9pq2jhfq3uEt/fdCG/P1AYWnXVhvOJsl8V564dm4hy5Ktgs39oPzUXU7HPXu9/F1m/uxdyIrV9OKXy88Zw6IFG90MTEOWK1toV9zGwp181YZ6UcRvsodjMV57jSyoOXrT0GuwtGpAGFRfvHU59BEufgJeO9Iot2MBhA8KtrOPUyH+FpxtFo+ozibHdh1QQRvq5Fp9MgEMr2JG142SrtgUI5pL1XIwJWaW3KSuzAxFyDqLhgU0LaVl5wJHyKF24R0l41wR85D64pY2R+BhtES2sUZzWc/dbL+nq9KvYoX4f9aWPec2H/4004/3ZSn157TeGFW4W0Ve/YuOArdzfsXf0JaYdFqVhbBqv3Fp21mYgKOxeKud7P1HlTzd5Zo6AkkK8cfhbz01rbZqLxX5GiLZdLc13jHHWoHP3znOMW5xVirvfb2BjanqWWaajEWRkUGesf+t9YDsW2Fu2iu4cGSZwjw+Iz0bJ6Jbbtfw8XxZarr+g56+xudY+O4M8pznYl9GzixUpzyLrwskVa4Z1ahbRN8pXC1v5Z6HJpO1T5vRzStvCCzUCLGtJWyltZgV1mvx3oZzpxVsLZ/3MMNt2e4qdh/5OFAFe2y3PFb/zcQpyjhbQVYTfbw7xOrNK+3o+DR5InzvJc712huWl576wcZh6I52zbIu8x3vj3cSgW88t1WSg+9j1s/EZeSKXtwGRxvhfzdyj7dtX9u+qrJjTenznnuMRZnetV55CVa/vOiakAoygmy3NWphM+HBfew6zaQHl16QY7CYjz/HeSP+csLQjjnLOW7dH4nuKcUSqHtI2hZ2cRbtQ0IViQH15kZRGmLpdC2rP1YmuVr6MAV4SQm4atlZC2hRdsBqDZIrRwOiV8XjQpXIeBCrL297kHZXEVq7Wl8PNl2H9kDD/vg/2C2ZyxIuYXemBvihykSHWIuhVKDpU7/9huEHYlpB3NG9fWwfBeDmvHuRDKwpOK9JytRH/gYW1hJ/fb3zOs1P4WxGrmCQaBkcPaY7Eg2kpg1R5S3e7Gkv0WbaOmE6+a1dph9tQ5eYPgSvmOwTNv6/OVbWZIq6zWjhi8DFZY+x/j4NLWI9Z7i/bW1dk+sNXaZYfE4SUBnP+V3j66a/zqHM/UjtVWo+D7tBdneTtSHc7otku50V5UD0ytQrsm1G0apnbk4HhJA2DwTqPmW1NrfiCJGkYfH+XG1EGneOyFmgGE7ntlQVvE4rV484+VThZe+1ZldbbZliq7Is7G+eYfKduw9ppsw1LqEH0rlJKvUZyfVvI1htZ1drGul+t3YhHTXVj9rsWKXW0+Fp11NHHWLbCqGwTPudKOJV+PwdpjmXAtkz1it3FblFpmZSHV5r/rF7CJjt8Z8Rtln/MX30dFxHcuuFdoFpX1R5wNp4l5/zqUnrOyIEx46tqFZsJOlS44DYOakDBatHfoe8XO286IBVsD2Of81Tm8ZlUGcQ1pn/MlHOWCMMPA3Pq+NrbRSPg/zcU5B51e5RxrbyU6XLnYnl2KHm89UDPDINguSAeD+GfIHrIjG23ZXtyYIu+HDuZ7NKAo+dY0Aib5dj1kXCCmQOWukrZuBQoLsD3DgwM5pWg3hr4d2ViVoRzxOV6kb8CVnBz5s0y3YV90NjqKRfka0few2B6Wi13uEpwpmoFgUfQ91PHBKwuk4+x1OE8f09Rfe5Osgf3PN+UV2Ttehq35ZdjfULY+vWXc5jQ9tH3KNnufNG/sFKIubalaI3Wc4XIpnrMIX4t8l+6G/chlOLrEHHV/QtpqmdWtVGMhthv5XhKnYo3D/A/vwUajqFl01pHirIrB3VKe4S1MY7FR2nZ1P6pXqNe38DjFnLXZQrPV49AmQtjdYmuUJlytCVGHbeZC8WmxlSocXi98RWy9ukc6bKTa2NmbnhAm20JsNVumnqWdiDgrAwT91q97sPnLu6V91WtPZsCpDiaS5jm7YFO3oIXC60743hXbyr6FF/5buwpc0y7PPijZeuPfH1C4eBAzf20yiFsYDm2Xheqiycfqszjnq6XjO3lCmEV/E4edreyfYp+ntzgroecbngJ0ldbLe5prGhAoKsVejcesdm7lWSUhMcYjs9D3cAl2ZZcj4DcLaTegJydPn2+J1zRfNX+bIxedJbPkcvgbESyvRadBnKWFZ2J7l9mfWajcmYczIk+xOlz8ZmqdXO5EjhK1hFbxXqOFpsVvnxAHhAiBlv8cp8/C/pzJAyykueJwOjW9/Nql35ol8hXpu5X0XZdh/8VPYHvtcvQFZpZ10dzU4vAPs0NIdmi8RZFPAuJsq8zE9J5vY7PYq/yNOPDiu5j/60w4t4zD2i8NoeZE8rW7UPwHcQCKuqhKfRUC/AAqTERaOoTks39TDvT4FjaLs7Lf0IqixhYRZ2ubpE9EnEUYfvcDWK1eXxxA0jMOhXVZqO66B1t1oeZkzTkr9ZMOIVHbZAy2fj0Wa7vGwasdKBl40R+ycjfazjk0g4mw3TZJR2z24eyOGA+9UPMXZ2t/HN/Z2jvP9fHBF6rdRvFrWouzHHqO86lPoxiC0OCAdRw1o/EJ+38gPYwiYg8123iI2rgVb14ST5q6hhOxnkplV9N2402TwZTx/pQ9516c3b8OLSZTDsb0/D88aBpJtkhjcVZCz4bTv0ZS47GsI/OmG7x2s2PhF2Ox9g9mYVh577I4dWsCBXmIBNnIYyvevCAE+hKOWj7PeSUOi0NFRJqfxu9lnxDPgBZ7nsUjKeN6hKWxbPx/8O7D5NgyfcW5H099SvXGZPmSc5Okrl2zMPPv4uEU4qlR8vz4hNVO+N4eh/l/l4+4bPuDIRRPoR5ioW7Fnjd2oyWK3Vt2H8SeFXEKszafulasWL0Uc6ItHtOm5/shbvuB9UdpK85t4ytwpdCLvWanahHiEQVx6ornwG7OuOol5oR7vo2NoQdqiLnTu6VnLjf+msIclw15v/N+T0EG0lacedMOgXCkIPBsd7Y7GSADI4EBijMFhKNmMkAGyAAZSDEGKM4p1iAjYUTHMtLzIANkgAwkl4G0FedHan+I/EIvR4scnJABMkAGyEDKMUBxJpQpByVH5MkdkdO+tC8ZSH0GKM6jXJyzqxeirqoIjij1zCiZh4bGmsQeAhAlP974qX/js43YRmQgtRmgOI9ikckoaUbzsqdQNiEKhBPq0LBsDfwlOfSgk8ZCKaY0r0KDv5Q2TpqNozDOa5K7EcgAxXkENlpcI954RDfLB//iNjRUF/DmTSYH+Y9h3vI1qC6igMTFbjLbgnnzXh8hDFCcR0hDJdSpxSO6jgKUNbehud6HjNFogxSq08S6NVj0ozmYyANvKAwpxGVCfQrLPeTsUpxHG3RxiW4O8uvXoLW5DtkUjCTfdF5U/6gNLTMrknwdeuUUGzIwmhigOI8qcY5PdLOrn0Lr4mbkZ6XrzexGdkkdHp23Bq3L27BoeRta/tdi+Iq1z+RWbPOQF5Prn8K8JXK61iXLUe3NNxdaZz4KZj6F5qVKnk82YqJ3DlpMQ9qiDI9h+gKlDMuexdzGWg6WRtX9mK73F+s9GIMEivMo6gziEV1pkdjyZ+DLT9MbyFGAkjlrsGjpcjxaXYXcnHzkFk9D9YJn0VRXoQvxZxTNQdOyNsx7/DEU5OcjO78G/hYhvE9hcrbBfuNrMH1xG1pbmlHmLUW2x4uyhjWS8EshbS1njnwUPbYKrYsWo2qqF+MfKkJ+7UI0L2/D3Noic+HX/p7vaSMyMOoZoDiPEsjjX5mdzgvA5MjCosXNKHjIIK7G8L60oM7EVt5mSXD9JZrfO7yoFsJsnCZwVmG68MrrtIfdWEU3PCiZ24ZF9f14OtEoYXgwvA3moeGSXIxoAac4jwaAE1iZnc4LwFyVi9EqQsyTYnVgilAu+GFkmFkV5+JwHuMffQaLli1GidGbLlJC2prrOUqa0bJ8Ocpyw7+XBaUAU1qMQm5Mw/8pvmQgXRigOI90cU5gZXaEZzfgurtR1CDPr4p528g/ZfuQJFJm38ufyYul5IVTkXkov1vWgqLMgXRMpaha3IZF86bFPmxlkhDVNkwvc0eMvMc/ugqLlmvKklmF6cvMF3xNnKms0g7Z2YPJ86ztIOqu88hDv4uz3kpZLG2orBiXymXaXqJsSpspNrDKq7WhKurBNunSgbKecbKZKMtMD4rzSIYgrpXZbuTPWgMRyh38BWBuOB7yIMPyTznYJDMnShoPMoToOtzR07gihTKhjlEV3PLY+Uhbn7QCHGKkFL6FbdAKk6O8JSxooXSiPhXSKu15j2oOHsmtQ8PyNtRXF1nUNQcOY3hdm2es984Yds6S6+5wRW8zqQzxtFms8vD7iMFdQszSfmltP4rziL0BrOYu9SPZuOaiR6wN9HWN1vG5HnkKi5Y/gynRTkuT7FCAsgVtWLSgDtkGu2SUt0SExS2FXIoWrNIvvCsxma82XCNaHfhd/O1NW9FWI50BivMI7RzjWZlti2cueoTWP9EbL7t6ubmHG1F/RZxbfqgXZ2X6oHlWhS6cm18vQsGaMLfIz1mEKc1tWLTwMYzX5q/MV083eu8ON2wD8Zi11+D7tPa2Er0vmD51BzEU5xHYmcXlDcczFz0C697vzsTzGOYub0PromaUTSpChseLgqmN+OHC5Zji0d+g8pzsGtTV+qRtThOnzkHT0jY0N9TAZRBR2XNuw9z6GuTmFEFKu3CNtC1KF9IWts6ehnox17t4IaaUaMqw6NmBzTWnUzuyrhx8pAkDFOeR1tDxeMNxzUXrBanfojeC7OfyzkH94mflhWvLnsW8ec0oKymInOfNKkVZ4yrlgJJn0bxgMarKLA4eyapA1ZPPymmXrkH9zCpke8TcsiGkrdgpo7jRpAwWeY8g26YDP6xj+vUZw9nmFOeR1AEq3vBc7SKjiPLHNxc9nNDx2uzkyAAZIAPRGaA4R4hbdIMNJ1AZxXPQ8ET087AdE2ox/cl5SViZnbp2Gc424bXJBRkgA8lggOI8gsQ5GQAwT3YsZIAMkIHUY4DiTHHmAhMyQAbIABlIMQYozinWIBzBpt4Ilm3CNiEDZGCoGaA4U5w5YiYDZIAMkIEUY4DinGINMtSjM16PHgEZIANkIPUYSFtxJoypByPbhG1CBsgAGZAZSHNx3oRTtwIIftWHW5few56FvDF4Y5ABMkAGyMDwM5Dm4uzDnGXrsPPQB+i9E0Cw9z38mGFuzj2RATJABsjAMDOQ5uIcHh1tOt2LYLAbbw5zg3DEGm4T2oK2IANkIF0ZoDgrYkxxZieQrp0A6032yUDqMUBxVsR5T3cAwVvvYxM9Z4azyAAZIANkYJgZoDgrDfDmJXnOecUwNwhHsKk3gmWbsE3IABkYagYozpIYr8OpjwMIXjrI0SIHJ2SADJABMjDsDFCcJQiVLVUU52EHcqhHp7wePSIyQAZSkQGKsyTOPuzp7kMw2Ivzb2zDkjk+ihRHzmSADJABMjBsDFCcVfgqn8Nr3WI7VUD6u/gWR5OpOJpkmcglGSAD6cAAxVkSZ9Vz7sPVM4ewc/1KtNTxBkiHG4B1JOdkgAykIgMUZ0mclTnny4dQpnrSfB22cE4q3igsEztwMkAGhpIBirMkwitxopertYcSPF6LHR0ZIANkwJoBirPiIUv7nD9+Hy/SY6bHTAbIABkgA8PMAMVZaQDp+E6eEMYbcphvSHoS1p4EbUPbpBMDFGetOPPBFxRnijMZIANkIAUYoDjbfZjTtg9nxQlhn3+AbSnQKOk0OmRd6Q2RATJABiIZSHNxVlZpi73Nn1/Cqd2tHDFycEIGyAAZIAPDzkCai7MPc5atxIqFM4e9IThyjBw50ia0CRkgA+nKQJqLM8FPV/BZb7JPBshAKjNAcWb4hlEDMkAGyAAZSDEGKM4p1iCpPJJj2ehpkAEyQAaGhgGKM8WZI2YyQAbIABlIMQYozinWIByVDs2olHamnckAGUhlBijOFGeOmMkAGUiIAR82/Wo3Wix/E+t7M1GciW3HunHrjnhkbS9O/cwsDT9LZTEd7LJRnC1vMN4Igw0b8yNTI5+BVuW579dwYr1Fe7YdwtU7Ady5cDCKgOt/O+e/LiEY7EOv9MjapZhTqf9+5NuN9Um0DSnOQyLO2eiYNBvBklJsiHG9Ns80wN+k+avBcUccYDtycWZyA1Djx3FnHOljlCNRkJKbvhK2vT1wXrgJxy+fTszLW30Mjr9dhn11Emzy+vex8YvvonFDEvIeUe0Tf/0LT9+Drd+M0fzdh9oRU9dW7DnXK3u2m31ROSzb/B56hUBfik+g37wQQJBn+0e1aXL7mPgZHqpyUJyHomNwFOGGvwmBibkx4ZvudGNVhvjLR9eUJqCkCE/EU0ZXBYJC1L2l2BJP+hGV5uewn70JZ3cP7AsTvIneug5n12nYcxP8XTz2+e192PrNPZg/ykKQrne/i63f3IVnfmths2cfRNs3Y9B2MjMmzxEd2dxMTFgt//nOCaEeOeLc0iF7txffiu8kwbLN7+NWMIBbpzfFfE689OCdzz/Azni4Y5rEuRuBNqM4D0GjPZFTA/inoTPDorMzK0OmFwF/E27kZMcN4hPObEw3y2s0fFa+GLbCBOwn1Xkn7F034Ti8O24bRohJNNuNUnG2zR+H1d+MweZuu6ndJvzhO9j6zbfR+Gyi7aFPL3vRI0Sc5x/C1WAAd7p3xxTaMEM+7DzXh2DwGk7EsNWLncIj78ab0Xjjd6Y8hu2t52ukf05xTjrw2TheInu0bQlca8vEGUBNDTriCWknkO9IBzah8j9/Go4LN2FfV5mcmzqFxdm1LAMVrXnlwQAAIABJREFUbz+AZ/5qLrDR7ZiFmf8Yg61f3w9fBFuZaPzXGGz914PIi/gusc5xJImz5NnGIbIRdlVF/cy26Ay+1S2LeDKmXwbYThF1Yn7R23KQ7ENxVg0phZ4b0JPtxl5PNQJTG+V53yk16MwydDpKmLrPk6NvpGwf4Bd5aNKraSd65HwfiZKvWhZ7Ls6UNwHF0UPaEfPTMcS83OnB8YdrEVDLUF2PQFEJtvd3ALDwmCR+jtfW6+0g6rH6JBwXrsO+ZYH+u5aDsP/pMhzdN6U5ZOfZLtjXGtKI3zcdkfIW88zqn+MXc/V5hezlgk3ke/p6OG37btgP3+xnSDsLFSfvQ9uX31LmRv8N6//5fdRvz9JfPyTOWag4/V2s//ouOb2Yh96iYUCUc7YT9T3fwfpQnndh82ffwYLXTULDUr73obYyE75Y+Yq8V9ix4J9jsVk3l6vM65oIbN7b38faL5S6fX032j4cB2+dvrxyaHssFuzQf6561REhbWNZvx6LtV125EVZ2BRbnDMw/7Mx2PqhcYBhxzPfjMELpzNC7VH7ofjfgeouZU77s++jeoUTjf8YK4XoN//rQRQby7LQgcYP71XsFqU97MoDcnrfwwotc3G9n4+j1+Qn3kUNWe/4AHe4SjvUnhwQuEBxVm4wOfRch0DZLNzIm4RdmR6059fKAm2Y97UKU+8taACqfDigETs5bQOClSb5Ti7BKrMb3FWOoL8xZkg7PD9dgB5fE1BUgHKz/OwutGb7EKhpRHByJTqzPVjlysfxPD+Clf7IwYdFHhE3jJU4574szRE73t2nudkqYXu1RxbzI0dgX/o0bJtOwtFlIaCFC2Cb/bT0Zz8sRPesxbxxJWz/u0vO99gx2Ff/BLbnj8n5igVkh3dqymAQGtN6ZqH2w7ux9Zu70db1IHwvZaDijQex8F9jsfUf4+DW/kYS0bF44ZOx2PiPH2D6KxkofuMHWPvlGGz94gfwatPanWj88H7Mf9eOig2ZKN4/Dgv+KV9nya8N5bLIt+1rk3wX2vGMuN5n96FxvxMTXrKjsUeU50FU/CQT7rn6vAv/+16pbmv/Og4VG4R3Lcp7F7Z+8oBevJTQ9sZzTp39XL/7nsk8exaqe0RdxkLO1wnfyfuwXgwW/jXO0sMebHHe/OVYvNAzDhWvPIi14tpigPBXOyr2fx8vfDMGz7ytscV8O5ZF2E0I+9145reGQVilEtI+t0Nni4j7Qdfe4WvJXncvTlmt7ha/k+an+3B+d/h38ebPdKPTZhRn6YZyo3NyEzC1BscztQ1dgCtikVW5V7PISknrLYU+TJ2PnqomoCBfcwNb5etBV6Ux3/B1t+fNSiykLS0Ga8QVdzgP7Q1bnuWVhDmQ54mYky7XDCS0v4nrvak4V8ImLcI6C7vWU9ly1tyTfv0ynBcuR1no9TLsf7sJp07oNfVUQtcR3vsvuiQv2v68Jq1F56mr6/77JU/qhdN6UZLSaOsj8pJEdAw2fmjXiXaxtCI5jrnUStkDjJjbtcjXe054gfp8vX8Vn30H9bqFck4s+GIMNhrnjBXBjfB6f/YAXohYAKaEtj97AIUau9V+eBe2Gj6zbf+BJMTGfN3SwrK7sWS/eRsMtjhv/ac6eFI87r+rHnekpy3Z7ev7Ua1rU2VgZqzfz8ILu3SsaOwS9XMpZN2Hs8YohPT7mWhZvwMnLou56Us4PN/cVlHzj7ccTKfpm1PfzhRnAayzBH3+JkSEqR2TpFXWKCwIN6pVWrOQtpp2gjv8e+kGKcCVmibA1HP2yKu0Y4S0tTfrrvzZQE0V2s2E1pGPnqnytfSDiUGA00yc1XD285p53lxlYdaxgwY7uGBTxbnZojxSfjdh36LJT+1kFA/d+acjhnwrwyFtNW2cr9U9IjT9XcyMp5OURDRytXZs0VHrKotGRNg2gXxFODdCLO0umH0uh6rvxdyIrV9OKXxs9JLlhV+a+imDCW04WXCYJ3njJvnGWFgW206JhbXDdjT+zijO8uBla48q3mp7uGB7W0QGDO0/KOIcwMW3NNeReDyIi+JZ8uLvq2s49fJ8A8fG9Pxf2++N9vcUZ7sLqyaI8HUtOo37g5XtSdoV01ZpDxTKIe29GhGwSmtTVmKbbq1SQtpWXnAkkIoXbhHSXjXBHzkPriljZH4JdABGcVbD2W+9rO9kXhV7lK/D/rQx77mw//EmnH87qU+vLZ/wwq1C2qp3bFzwlbtbWaWdaEhb6dQ/ewDF2jJYvU9ARIWdC8Vc72ci/Kvd52syp5pAvr5ukZ+Yn9baVlm0ZfAAZTE0XFtbFuPc7upx+i1TUlRBI9aKXaSBgMGjl7myGHwovxs+cVbKpa277r2hjoMizmae80y0rF6Jbfvfw8VbQqDpOQ+oP7K6T0fo5xRnuxJ6NvFipTlk3SIri7TCO7UKaZvkK4Wt/bPQ5dJ2qPJ7OaRt4QWbQRY1pK2Ut7ICu8x+O9DPdOKshLP/5xhsuj3FT8P+JwsBrmyX54rf+LmFOEcLaSvCbraHeZ1YpX29HwePJE+c5bneu0Jz0/JeX3nLUtjjU3hIQJxtW0RIegw2/n0cisX8cl0Wio99DxsNC6akwYEUbr8X83eE9xqre46lV11oXJRFXZk9DhPsLkgDAYPgi3xHqjhv/nBcaM+1zg6rM+HSDnbmvyNvo0rmnLO0IIxzzhTnsCZQnDNK5ZC2MfTsLMKNmiYEC/LDi6wswtTlUkh7tl5srfJ1FOCKEHLTsLUS0rbwgs3ANVuEFk6nhM+LJoXrMFBB1v4+96AsrmK1thR+vgz7j4zh532wixXXEXPGiphf6IG9KQxkuOwu2KJuhZJD5c4/thuEXQlpR/PGtXUwvJfD2t/DdG3nbEgTKmPcImol+haeZdz5ynZzv/09w0rtb+GFLjsmGOpguQLbqn52F+TQtgjzyqHg9X+NnIuXPWDrsLYxXK7ab/g8ZyWs/Y9xcEWpu1pO24BWa/tw+LLwis9hT7Rr/eocz9SOZp80/C7txVnejlSHM7rtUm60F9UDU6vQrgl1m4apHTk4XtIAGLzTqPnW1JofSKKG0cdbiFUEoIrHXqgZQOjSKAvaIhavxZt/rHSy8Nq3KquzzbZU2RVxNs43/0jZhrXXZBuWUofoW6GUfI3i/LSSrzG0rrOLdb3k1ch3YfW7hhW7Zr+PW0TD4qxdXGWrGwTPudKOJV+PwdpjmXAtkz1it2FbVEhk1Dngv+sXsInvnVa/UULbq7vvx8ZvxmLBdhPbJXFB2NxP5BXfwnMP1WPhOGk1tnbuW/LeQ2F5xd6h/41zzi7IC+nuwXzjlrdKF5yGQY247rYz8R0mEiqjWl5ln3Owe1/0w0ukRWOXcDSetQ5q3nwNMzEKbZHm4pyDTq9yjrW3Eh2uXGzPLkWPtx6omWEQbBekg0H8M2QP2ZGNtmwvbkyR9y0H8z0aUJR8axoBk3y7HjIuEFM6HneVtHUrUFiA7RkeHMgpRbsx9O3IVo73dGPVeJG+AVdycuTPMt2Goz6z0VEsyteIvofF9rBc7HKX4EzRDASLou+hjuhkTOGXBdJx9jqcp49p6q/pSO1rYP+z2Kt8GfYdL8PW/DLsbyhbn94yzglPD22fss3eJ80bO4WoS1uq1sCm6zQVz1mEr0W+S3fDfuQyHF1ijro/IW21zOpWKnlbkO8ledvT/A/vwUajqMUtzqoY3K1sNVK3MI3FRmnb1f2oXqFeX10Fbpj3FHPWZqvAFfF8oVtsjdKEqyNC1HL+xafFVqpweL3wFbH16h5s/fI+VJsKgxLa/uYuk+1hapm1NrOjeHV4K5VxJbuOK2kO+y680KVu63oQtYajUGURFaF4ebA0Yf8DWKvsFR+IONvULWhf34NlJ5Uyvyu2lX0LL/x3eP90qLwLw6HtMtN7QbWF/jW0jcpQr1C+Sl5yOp4QZrRLOv+f3uKshJ5veArQVVov72muaUCgqBR7NR6zCkh5VklIjPHILPQ9XIJd2eUI+M1C2g3oycnT51viNc1Xzd/myEVnySy5HP5GBMtr0WkQZ2nhme7BGJqHZJiFyp15OCPyFKvDxe+m1snlTuQoUcvOSPFeo4WmxW+fEAeEaA4TOX0W9udMHmAhzRWH06mHj8ivXfqtWSJfkV49zKTrMuy/+Alsr12OvsDMsi6aTlUcqGF2CMkOw4EhCYizrTIT03u+jc1ir/I34sCL72L+rzPh3DIOa780HPaRSL52F4r/IA5AMS70EgL8ACpMRFo6hOSzf1MWpn0Lmz+5D/PfyIDTwjZ5J78tpTULaYfYNTuE5K+RofVQeulahsNbvh6L1e8ahLFSPUhE1E+U9X5M3yCvLh+QOIvrS4eQqG2i7IvuGgevdqCksckm6YhNsbAr+kMv1Domcra2dMwnH3xhMcDX3Jua9lDtPFpf01qc5dBznE99SiMoRivs6VSvCft/IC0Ui9hDTY4HIACtePNSH4J3ruFEjKdS2RYexMUEnkqlethn969Di9UUA9tuAG038gQ+jcVZCT0bTv9Kpw6cdR15N6y+zexY+MVYrP2DwduUOnHZuxQndOnma9nBD7CDb8WbF4RAX8JRqxO/VijPc778Dl7UTcVE4a1yE05cE/PaYt9zL07FCIPrOYiSL9t7gO09fLZNX3Hux1OfeEMMH6i0vZntszDz73dh65ffxsKT4yDmxyeI+d63x2H+3+Uzpdv+YAjFs7MehM66FXve2I0WS1vK36+IV5i1+dS1YsXqpZjTn99q8+H7QWhns3tu6D5LW3FuG1+BK4Ve7DU7VYtgj3iw00bM6zKkueyNoQdqiLnTu7Hxk/vQ+GsKc9pwwD5r1PVZaSvOvGmHbgRIW9PWZIAMkIHEGKA4c8Q56kac7AQS6wRoL9qLDKQeAxRnijPFmQyQATJABlKMgbQV50dqf4j8Qi+BTDEgOYJPvRE824RtQgaGngGKM8WJAxQyQAbIABlIMQYozinWIIM9Qs2uXoi6qiI4otQzo2QeGhpr4nwIwNCPIAfbJsyPbUgGyECqM0BxjiJaqd54scqXUdKM5mVPoWxClBtxQh0alq2BvySHI+eksVCKKc2r0OAvpY2TZuMojPOa5G4EMkBxHoGNFkuUpe/jEd0sH/yL29BQXcCbN5kc5D+GecvXoLqIAhIXu8lsC+bNe32EMEBxHiENlVCnFo/oOgpQ1tyG5nofMkajDVKoThPr1mDRj+ZgIg+8oTCkEJcJ9Sks95CzS3EebdDFJbo5yK9fg9bmOmRTMJJ803lR/aM2tMysSPJ16JVTbMjAaGKA4jyqxDk+0c2ufgqti5uRn5WuN7Mb2SV1eHTeGrQub8Oi5W1o+V+L4SvWPpNbsc1DXkyufwrzlsjpWpcsR7U331xonfkomPkUmpcqeT7ZiIneOWgxDWmLMjyG6QuUMix7FnMbazlYGlX3Y7reX6z3YAwSKM6jqDOIR3SlRWLLn4EvP01vIEcBSuaswaKly/FodRVyc/KRWzwN1QueRVNdhS7En1E0B03L2jDv8cdQkJ+P7Pwa+FuE8D6FydkG+42vwfTFbWhtaUaZtxTZHi/KGtZIwi+FtLWcOfJR9NgqtC5ajKqpXox/qAj5tQvRvLwNc2uLzIVf+3u+p43IwKhngOI8SiCPf2V2Oi8AkyMLixY3o+Ahg7gaw/vSgjoTW3mbJcH1l2h+7/CiWgizcZrAWYXpwiuv0x52YxXd8KBkbhsW1ftGfaczGF4F89DwN0r6MLapvk0pzqMB7ARWZqfzAjBX5WK0ihDzJP1NENkpKEK54IeRYWZVnIvDeYx/9BksWrYYJUZvukgJaWuu5yhpRsvy5SjLDf9evn4BprQYhdyYhv9HthVtQpuMTgYoziNdnBNYmR3h2Q247m4UNcjzq2LeNvJP2T4kiZTZ9/Jn8mIpeeFUZB7K75a1oChzIDdhKaoWt2HRvGmxD1uZJES1DdPL3BFe7PhHV2HRck1ZMqswfZn5gq+JM5VV2iE7ezB5nrUdRN11Hnnod3HWWymLpQ2VFeNSuUzbS5RNaTPFBlZ5tTZURT3YhoIRZ5sl2sZMH3FPjlbWKM4jGfa4Vma7kT9rDUQod/AXgLnheMiDDMs/5WCTzJwoaTzIEKLrcEdP44oUyoRuSlVwy2PnI2190gpwiJFS+Ba2QStMjvKWsKCF0on6VEirtOc9qjl4JLcODcvbUF9dZFHXHDiM4XVtnrHeO2PYOUuuu8MVvc2kMsTTZrHKw+/TRkgSuhfJRVxcUJxHLChWc5f6EXtcc9Ej1gb6ukbrIFyPPIVFy5/BlGinpUl2KEDZgjYsWlCHbINdMspbIsLilkIuRQtW6RfelZjMVxuuEa0O/C7+9qataKuRzgDFeYR2jvGszLbFMxc9Quuf6I2XXb3c3MONqL8izi0/1IuzMn3QPKtCF87NrxehYE2YW+TnLMKU5jYsWvgYxmvzV+arpxu9d4cbtoF4zNpr8H1cXkmi/DA9xX6oGaA4j8DOLC5vOJ656BFY937fIJ7HMHd5G1oXNaNsUhEyPF4UTG3EDxcuxxSPvuOR52TXoK7WJ21zmjh1DpqWtqG5oQYug4jKnnMb5tbXIDenCFLahWukbVG6kLawdfY01Iu53sULMaVEU4ZFzw5srjmd2pF15eAjTRigOI+0ho7HG45rLlovSP0WvRFkP5d3DuoXPysvXFv2LObNa0ZZSUHkPG9WKcoaVykHlDyL5gWLUVVmcfBIVgWqnnxWTrt0DepnViHbI+aWDSFtxU4ZxY0mZbDIewTZNh34YR3Tr88YzjanOI+kDlDxhudqFxlFlD++uejhhI7XZidHBsgAGYjOAMU5QtyiG2w4gcoonoOGJ6Kfh+2YUIvpT85Lwsrs1LXLcLYJr00uyAAZSAYDFOcRJM7JAIB5smMhA2SADKQeAxRnijMXmJABMkAGyECKMUBxTrEG4Qg29UawbBO2CRkgA0PNAMWZ4swRMxkgA2SADKQYAxTnFGuQoR6d8Xr0CMgAGSADqcdA2oozYUw9GNkmbBMyQAbIgMxAmovzJpy6FUDwqz7cuvQe9izkjcEbgwyQATJABoafgTQXZx/mLFuHnYc+QO+dAIK97+HHDHNz7okMkAEyQAaGmYE0F+fw6GjT6V4Eg914c5gbhCPWcJvQFrQFGSAD6coAxVkRY4ozO4F07QRYb7JPBlKPAYqzIs57ugMI3nofm+g5M5xFBsgAGSADw8wAxVlpgDcvyXPOK4a5QTiCTb0RLNuEbUIGyMBQM0BxlsR4HU59HEDw0kGOFjk4IQNkgAyQgWFngOIsQahsqaI4DzuQQz065fXoEZEBMpCKDFCcJXH2YU93H4LBXpx/YxuWzPFRpDhyJgNkgAyQgWFjgOKswlf5HF7rFtupAtLfxbc4mkzF0STLRC7JABlIBwYozpI4q55zH66eOYSd61eipY43QDrcAKwjOScDZCAVGaA4S+KszDlfPoQy1ZPm67CFc1LxRmGZ2IGTATIwlAxQnCURXokTvVytPZTg8Vrs6MgAGSAD1gxQnBUPWdrn/PH7eJEeMz1mMkAGyAAZGGYGKM5KA0jHd/KEMN6Qw3xD0pOw9iRoG9omnRigOGvFmQ++oDhTnMkAGSADKcAAxdnuw5y2fTgrTgj7/ANsS4FGSafRIetKb4gMkAEyEMlAmouzskpb7G3+/BJO7W7liJGDEzJABsgAGRh2BtJcnH2Ys2wlViycOewNwZFj5MiRNqFNyAAZSFcG0lycCX66gs96k30yQAZSmQGKM8M3jBqQATJABshAijFAcU6xBknlkRzLRk+DDJABMjA0DFCcKc4cMZMBMkAGyECKMTAo4syR1NCMpGhn2pkMkAEykB4MDLI4H8RFsS3pq170/r9DeLEyPYzIm4XtTAbIABkgA4PJwCCL80y0rN6G105241YwgDvdu/mUpxQLlQwmPMyLnREZIANkIDkMDLI4hwspPUiCZ1VzHoeDEzJABsgAGUiYgeSKM5/ylHCDcBQaHuDRFrQFGSAD6cpAksSZz0dOV6BYb3amZIAMkIGBM5AkcVbOrO7eTc+R4RwyQAbIABkgAwkykCRxlldt3zq9iQ2SYINwxDnwESdtSBuSATIw0hmgOFM8OYAiA2SADJCBFGMgSeL8HE70BhC8cwknfrkOLXUcxY30URzLT4bJABkgA0PHQJLE2QXbnG04ca0PQXEoSbAXp342dJUiQLQ1GSADZIAMjGQGkiTOiuf8VS8untyHbauXYg5PC2PYKMXCRiP5xmXZKTxkYHQzkCRx5oIw3jij+8Zh+7J9yQAZSCYDSRLn3Tj/VQBcrU14kwkv8yZfZIAMjFYGkiTOyj7nCwcZymUolwyQATJABshAggwkSZx9OHw5gODlQ3zwRYINMlpHgawXPRwyQAbIQPwMJEmcXeCDL+JvBAJLW5EBMkAGyICWgSSI80y0vPQOrt6RPec59BwZziEDZIAMkAEykBADgyzO8iptaW/zx904/FNfQoXRjhr4nqNIMkAGyAAZSFcGBlmcZ6Jl9UosmUNRTlegWG92pmSADJCBgTMwyOI88AKxUWlDMkAGyAAZSHcGKM6cB+HUAxkgA2SADKQYAxTnFGuQdB8tsv70mMgAGSADLlCcKc4cMZMBMkAGyECKMUBxTrEG4YiRXgMZIANkgAxQnCnOHDGTATJABshAijFAcU6xBuGImSNmMkAGyAAZoDhTnDliJgNkgAyQgRRjgOKcYg3CETNHzGSADJABMkBxpjhzxEwGyAAZIAMpxgDFOcUahCNmjpjJABkgA2SA4kxx5oiZDJABMkAGUowBinOKNQhHzBwxkwEyQAbIAMWZ4swRMxkgA2SADKQYAxTnFGsQjpg5YiYDZIAMkAGKM8WZI2YyQAbIABlIMQYozinWIBwxc8RMBsgAGSADFGeKM0fMZIAMkAEykGIMUJxTrEE4YuaImQyQATJABijOFGeOmMkAGSADZCDFGKA4p1iDcMTMETMZIANkgAxQnCnOHDGTATJABshAijFAcU6xBuGImSNmMkAGyAAZoDhTnDliJgNkgAyQgRRjgOKcYg3CETNHzGSADJABMkBxpjhzxEwGyAAZIAMpxgDFOcUahCNmjpjJABkgA2SA4kxx5oiZDJABMkAGUowBinOKNQhHzBwxkwEyQAbIAMWZ4swRMxkgA2SADKQYAxTnFGsQjpg5YiYDZIAMkIEUEeccdHqbAL/mr6QIT1A4OZolA2SADJCBNGQgRcTZhdYMN1aJv+wKBP1NuJGTPSKBzNnwEZYevR3j7yoqyodoZDj+OeQtbkfelCG6XhreRPRyyBYZIAODzUDKiLNasS0TZwD+Ghx3jNDG9iyFq3xl6O/hLUKsP4J/bvgzV3krHEMlYkvOSwOF2UtGqD2Hyk68zogcDKv9Bl95f482BlJMnHNxprwJKB49IW3Zk/4IVbXDdPNQnCk6HHiQATIw4hhIrjg73NiVW4m+KQ3KfHIjgt5qHHdZCFWmFwF/Y/SQdkYBuopqEagM54kpNejMMs9zeuYk9JTWIVitzGdX1yNQ4sVeZ2T6RNLGO0qLT5xbkffCeTT/TgmH/+4jzNm0Dy6zOo1/EaX/8RFa1bRHb6P19fPwzVupgy9aeH3Bxk26tPHWhekimaFNaBMyQAaSwUDyxNmZj54pjUBlLXo8+die4cGB3HLcqJyNvgm5KDcZyW3PmwXU1KAjWkjb7cWNvFJ0uPOwQeTpqUKgpgko82KDIc8tE/wI+uvRl1eCdlcuVrnycXxiNQKP1KEn260TqETSJtIQscV5Hibt/FQKfc9q24cJ5S/h4bbzaO64jUWvHECmrk7PoeI/b2Pp4avwrxVpV2LCk0dQ9cpHWPKb95GjFXM1vL72ohTWfmxtOKye6fHp6p5IfZiWHREZIANkIPkMJEecHbk4U9YIlJVju1FoHS5TYbbZPeia0p+QthIKN4qzowg3apoQfDgv4nrlEWVKIK1OLGM3UExxrv8LFhy9jRktesF0LDmPRUcN4fCSI3j86G2Yer5Z+t+Hbh6GtTkQSZDZEDv8HdkhA8PGQFLEeW9BPVBTi86M2OIV6ghc5QjGCmmbgaKKcJ5Hb0QpRC486gociFWORNKalSHKZ7HEOW+L8JrPY5Ixj6x2zD56G4+tnqep16uYdlj2nKuefC6+RWUUZ439EuDR2B78n3YkA2RgCBkYfHF2lqBPhJkL8yM81pAQm1RQDmlXod3o1WrSljvz0FlYi8DURv2eaP8sdEXMY7vRXjgrNNeNKbW44snDKtP8E0mbWAcfS5yLX4m+7ap5g2F+uO4IZv9G+U3Hp2jedw5lj0cRaoozOxTNPRTtHuR3id3btBftlUwGBl2cV02oBfyzTcQyWkMqIe2iAktBb832SXPLQW8lOqX5ZrEvOhedpU1AuRdbLDqgckcuDngqcKNcEfQoK8ETSRtvo8Qlzh3nUarZfqXdimU1P+woEHPTf8FjB2WhjpyfVuxNcaY4W9wb8TLMdNH6Ln5HPpLDwKCLc3uhEMHq6Iu6jJ2FEtK+4raopKMAV6qagKJJaNX+VoS0/U0ITMyNowP2oKsyupCHIUskrUWZlXLGEmc5rH0RZfnR8wmXzZjOh7yt8oIy0+1aFOc42DDalP9b80bb0DZkYCgYGHxxLhJblqYlNN+8K392VEEvd1dJ4WmjeG/wTAP8M3AmUw/LdLPQdUYp+vxNCBbow+2JpO1Pg8QSZ5uyIKw5YnuTD47xxkVedXCYrLTO2SgOOvkU/ga9HaTyPnkOi47eBg8hMbGNdqDH9xzEkAEykEIMDLo4P5FTI8/zeivR4crFBleBvH1pqrU3LXvbM9Dj9kjbnTo8BdiuMZKaZ7C4FLsyc7HLXYqeybMQlPY6+3Fcs2d5Q67YPtWIQGFpaPtUh8eHgNjnXFaOXRrhTiRtf4RZ/CamONtbUfyK8Hxvo/kxFUu7AAAgAElEQVQ/fo+HZ8nbo/y//hRLDr6PHI0d3G1XJRGes+33mPT4i3D9+w5MajsvrfZeKtJqt1Kpv8t6FTPEIrLfnofvyZfgmrUPZZv+glIe58mOSGWEr2SBDKQcA4Muzja7G3v/f3tfGxxVla5LFQ4FfgwqpHd3kp60hBBMhGAIdkByyQjBgSEV9GSEE2aGI8VXSjzDwAhczIQb8aMulKPgyEepwMEKci4fFlfUOMyQq5GKdVKmhhRQEbAYTkRPoPR0KKnq/Hpurf3Rvffuvbt3h+50J3l+pLrTvXrttd73Wet533e9a60JZQg8qq7xikM/pvhx0jsOs20AUJJdhKtiT7S4+EIuP8VAzi53Lk4VqcldZQsQLC7FSa8PNb5SBB8tM5CzKHus8DEEteeL8iXl6MjNi0wGi6esTdtjkXZschYenXIIyT8JElXP5V4kEr3mGw8WcWWvwvg1rVj4b/+FpWq5pYf/Ewu3NsL3QBTPsLQRc94O/+bXb3+JaQv0WeBRftvHfseSC7+nzIkBYoAYsMdAEsjZ/mFUBGVDDBADxAAxQAzExgDJmZ5h2oVzOHBjD1zKiDIiBgY3BkjOJGeSMzFADBADxECaYYDknGYKoTU8uK1h6pf6JQaIAScYIDmTnGkxEwPEADFADKQZBkjOaaYQJxYVy9DyJgaIAWJgcGOA5ExypsVMDBADxAAxkGYYIDmnmUJoDQ9ua5j6pX6JAWLACQaSRs5TV+7GmStdCAYDCJ7fR6uMRgAxQAwQA8QAMeAQA0ki5604830Awevt+GjPVqxcMpcKcagQJxYVy9DyJgaIAWJgcGMgOeS88RNcDwZw6ZD54obBLUwOFuqXGCAGiAFiIBEYSA45S/twTpDzsWp6zPSYiQFigBggBoiBODGQVHK+3lxHhcSpkERYXKyDljsxQAwQAwMbA0ki5zqcvh5AsH0HyZnkTAwQA8QAMUAMxImBJJFzNd6/zCxtWq4D23Kl/qg/YoAYSBUGkkTOpTjcGUDwylEsjdNaSJUg+FwOQmKAGCAGiIF0wUDCyXnqwqexdX+rnK3d07KVoQwaJ8QAMUAMEAPEQJwYSCg51zWrh44EA7h+dh/+1U8rLF2sMLaDWCQGiAFiYOBgIKHkLLzmlRu34XDLZfQIgm6m58zBMHAGA3VFXREDxEC6YCCh5BzulJoQxjVnhnLiDOWEMcRJgrIgBoiBoYuBJJHzKnzUxWxtDqyhO7Coe+qeGCAGbgcDSSJnZZ9zT+s2eo70HIkBYoAYIAaIgTgxkCRyVo7v5AlhtBxvx3Lkb4kfYoAYGKoYSA45Vx/FpWAA5w4SWEMVWOw3sU8MEAPEQN8xkBxy9iuec0/nUWxdVo2pcbrzVGjfFUrZUXbEADFADAx8DCSHnCUvFu9pxfUfAwgGmRjGgTLwBwp1SB0SA8RAf2IgaeSsdKIUC5etwsolc5kMwOgBMUAMEAPEADHgEANJJmdaWv1pafFZxBsxQAwQA4MDAyRnh1YMAT84AE89Uo/EADEwEDBAciY5M8xEDBADxAAxkGYYIDmnmUIGgkXHNtLzIAaIAWIguRhICDk/Wv4LTCwspuVFoicGiAFigBggBhKAAZJzAoRICzK5FiTlS/mmFwZKUffnHVhsO3fE+p76TC99pqc+SM62Ayw9FUZQUy/EQCoxUIO97eLe+sv4aKNNO9YewqWeAHrO7otC4Da/5XxEr1vFAMm5vweDpwAXH6kEpvuxq7+fzefd1sCv8ZUiOLMKwQfzb6uetCTX3I2Q/nYNnrMdkObFQxxPQDp+Be4T+9JHJrUZWHNrGBq+GYvChGK+BjtbBTF34XR9adT+Tq3/AF2CoM+ToNMS7wnFRTzjxXlZknM/K2n+uDJgViWChQV4sp+fLQ8Sdw7WegvwTlZO1MklnQbUk1n5aMzJxfwEy2u2Jw/vPJCH1Y7qzcGxoiqgbB4u+gaO7BzrcXkT3GevwfO3I/Hhwt8o/879xjPx/c6RzJ1PZIZ+CnLuHYaGm/dhWgKfs/jYeQSD3Th3sMZRX6fWf4LrwQDEBUA8wriPukyg/gwYGQD1kpxToKQaTw5KUvBcAc4nZeNgDlqyBshgcU/C1VlVCEzIdTQhOh+AeWjzVwGTCpzrwp2Dp90DRG5x48sP1+xF8cv49Q7F265KM7k8kQVfRQLbVH1Ivsynp31HHERbiu2t3UoI/NkEtiVu3fLZzueF9JEVyXlIAT0HJ4X3V1KMLQOk30kzJrzTEJxViYu+9BmMA28CWQ7pL33wtgcI9vT6qGtW15njJVmN1Fu2xm/4DEA56WXG97c3t5CctQEge2gL0JHjw668mQhMrwRmVQGPlOFUtknI7onomFGlfP9wEVa7Tb8xkd87hQuUsqI+uc4SvKw9V/faOEl8PwONus8UgPtwsqgSmFqMLSHPLQevjffjavE8eR1UrnfmfAQenIga0+9LckqNz9faIV4fLsJaU3nxzNXeIlwsngeUiTZVIljsxzsekxwsfhdrQK7OmaKrtwp4dB4ChQ9hU6hfXrj08tW3VbwvK8epTFM7MgvQNqkcAb8m50prvUnjcKpY1YG53lnz0ZFjqteiHcH8vKiT7OysArRMeiysk0cfR3d+AVbr+xeH3KTjYh34DKSI3yyC9PE1eJpPwJWra3fucrjeOAP3F+J3yp/7yD5jGa2uN4TXGy7nOdsGya+rSysnXkW9e9vgblfLn2mDtOFI3CHt8gvDsL7ZjZlto9AgQs837sPMlR5Ufj0SDb3DUf/NWEzWtWH8/vtR+91I1Iuy4u/WCKy9kIFiK6/43dFKGa1s7yhUP2/dH9GOhgsSXCvdqP5aq/8ObPw6w/B8Bc91OH09gGDXB1ipl4mj99V4/3IAwe8/xXZH5a3bG2tc8fvBJzeSszpgFA+tAoGpj+Nq/kN4LSsPjRPLFVIrmmRcHxbhzcx8tJWI5KAitBTPR2BSMY79rAgXH61Cd944wwT+pMeH1Zk+rM6egu4oIVo7cq4RoeiyOWgxGAnjcLKgFC25D+Edrw+bvA+hbcp8mUjN3mCJW3n+ljzRn8fQ4lXbk+mzCNP6sCv/MWBmBS5OEHLIxWu5MxAQJD3ZJIe4Jpsc7HqwAiirwMU8rc0FOPVgOYL+WUYDSJZvWF7dE/IU+QkZWi0J+IpxNX8KjvnysSkzD+/kqe2dWoxNpjbWiDoyC9BRWgUUPhSuNzMHs01lXVo7Mn1QZBd9OWDL+FmyNy5jwZuLTd4CnCqsAB4p7bNhY0vOr7TBc7YT0m/9YayV74B05ho8X7RBevEluH71EqQjnTIBW64Jly2Ha5742w1JkPnx3eG69LIo3w6p+Ro8bR2QXt+h1Nuo1BtvApkgxfqbI7G+IwPT/jRWWRu+NRJrPpcwbc99WN87DCveC0+03vfuQ+3nYzF7jwfjN7lR3jQaGwX5fpOBfH0bxfuKbIyvzZL/SlsF+ccg5x/uxPqb4tkZmLbJg/LWu2UjYOPnHqMc/GpIu3Wb8XPz823+V7zuLpy2y+62+R0JN4yDoSgLkrM8MHw49XAVML0MJw1rsQW4KDwskycsAyVTIdrg9ApcfMAnr1uW+GYAZWU4ZuMlxQrRWpKzZxKullU6W3MVz7cN1aoh7eIplp6yBv4tE+YA02eg0eQl7ypYYC0HpxOLtwTBWVXozvVFTHAlUeX1WKSnHPOZuWgpqZIjDWZylvsph7RFlMTp4I+9HFDjm4HgrPkhLGjyFK92/dOXsXtvSc7lahLWro1hWYpsa0GgEZ70PiXRy454hSxrlWQwaYuO6EMyfkYJXbedgVSul9cfFUPgL/ElkMke6z8y4JPrz0T1jWFo+EpS+yFhRa/wrDPD/Qq1I/zsyc2CeO9GZW34M7P8CuUyMci5dwRWvJute5YHi35QPWr9c58PJ3aZn+Po/4PtciLZmW327XVUj75NfK/T2+CUK8lZgNxTJHu0Zo/X5X5ITkZCYUEEEGQSm6WQppbctdr7EI7ljLNJMIo9wUeSsxrOtgk9mwf0y/mP2xsHdn3UD/KsYgRmLbDMRj4mQu4ihK8vH8972XCoQnBykS40H21QqQZTDGPCLAP5f7FEUVYFuxC0bGjMKMU7NkZBRJ2xktIyi9Atnlcw0Ub30foZ/btIclbD2WZSlBOzTJ600E+uSs5HbLxiUebgFSV0rg+Pa7qVPfQrkNaZiLtKDWm/vjxibETIT6tL8iIUTpY/U8lZhJfl/52RcyziFXXFKiO348YY01Yrc3tU3SSEnAM4dzC6rqPJjd8NPdmRnMX66ngR7i3HKZO36JI9rCpcHWfeOqN6ZlOKItZ3bQdRrAle8sJMzko4uwwnze2SvNg0bpq83qysCevWUW1Cz0ofo3uhEWvjpnXZ28qYduei5eHwmnCwuAxt43IjQ8naRO7EmBBeqScfpwrLwzkCoTY/jjav1YBW8wUKnRNprIjHrgfFckJ02driQuuvzWsEOctk2WbyYrdDarsGz0mLvcaqV+x+5QkbEn0pSkhb9Y6ttlfJ69Xx7onuAzmvdKPywl3YfGu44/VkIev0I+du0HO2Go/8zG5uIDlLqodm4RXKHpZVmFr2MCstSNseaLEmeKEgAznL4ewFuPqAKQzszsUpsbZcVoGrE4rk9WZ5PVsckGEb0rbvYwgY7gJcFOvKhfp12PDatHhGjVNP04ZoxLNmZ+bj2IRSdPuVhDs779bWYNLVXZNTKq+Fi2S1U/J6s2ivkI/NUoT4rZwcl8iQtkr25rwEXTtDMu7DZwZy1sLZDaYtT+ualcQsKwKWveIoiV7RQtoasUfsYX5GObDk40YbwrcfB3F5ztUSlt0USWCjsKxJwmSH68lC3gkl5+qjyjYqrjnHre/bwf5Q/y3JWV077h5vIkGZHK1DlXJI24q0bSdfZyHaLfkVara2Es4OTiqI8MyVcLo5OcyL1yaKzOoZaLQiUM0LNfdR317Z4EjGfmKbiVqNJIh9xpGD0KExITLmJz1klFGMCIUW0nZ8OpsmO1OSX6jNmtzyE70PW5Xb2yLxSmRrK+Fst9Xa8V5RphPSEpOsNTI/vN1CxkpZ6bBI9GqGZBXSlkPlVyCZ13a1kLaVMaDHlMX7uMhZzb7WJ4gJucciXidl4gprS7eTrV2Kw50BBH9sxU4LeYRwxO9sMTpUZTTkyXlt3mPArApTJrQPjZPmWyZGuSQ1pG0TPrYEUqwJXh2YMvGWFGOXyM62SMoKPducoCaOBI1yoIbihUbPNHZllyAwqwrBiZFbhWZbEX4ck4nV75XtXZXoHm/MbJflp8orWhhdTr6bVRWxT3mTrE+7vqperqVBYCI2tX8xlwNUckYcYXJLjNjJUxDvZyfgEuHsiKQstc0aOf9W34dF8rGa8m90W5OMz1bC4e7DO6wnRrleEznnLlfqjbbtyq4v8a45a+T8rr5fXhR/Hj0TW/QxFoHHR85ebG3p42Ei6j7nYPvuOA4vMfbXqDN+N1TkMcTJWbfvtdiPY95cvJwzBR3FImwc6Z3KW6J+ppBYd14uVmeOs92/qm1fEuHglycIA2AO2nRbmKyOopTJ2f84gmXzLZOyXJJ6qlXZHHT48rDaOxEnJ8xE4JF5cia0OPM5YjtQaE29EoGCArycmYvXfFPQkWc6H1rb0yu2OuXmY5M4MjO3GBdLHGaKW07I2vapebiar4Tgxfaik/mzEBQJVJMnWWeOq+SMqX40ytvExJarKYazyJVlAlHHFGW7l+jTw48jKO91nmW5Tu+SVHKeXoZT3lxVfiU4ZsjQ9yK09S0zDy1iX3RJCV6Tt2D5sNZjzj/IQ9sjyrGeVydMxMtiK9e4KeiY8jgCMfZEO5pkBEF+cQXus1cg1dmsG29Qw9p/aYL09HK41h2B9JnwiNsgPWlK5CpcpG6fWg5Xwxk1HP6M8tmTpuQu2XO+Brdc7+/herEJ7jNX4Bbr230IaYv+xuU5V2egVmybujEalWIr1QsSKjtGof7mCNT3Dseapkx49Lh7QtlGJbZTaVupFu1QP1umz8pW2+E0IUw8Y0k4tB3PUZyhbVQ2+60dYUDfR763NiQHoVyGNjmrIe2reQXqHmExyS5AYNIU7DInYYlwqXwghy75yi6MHPWwC/ssYiVkbR1K1wZxTY4fgUfVA1KmV+BqfgE2iXXohxcgMDHPOltYfF/0uHoQSSWCJeXoGJdr3Lst1oO9U3D1EV3SliiXm2drgGhtivYqErZaiirCh3LMnI9g8Uy0+KIkg0lebBlfFv7N9Ap0PzjJmOWt71PZAgSLS3HS64N8OcWj1kl0op0G+YkDUCYV4x39oSYqJuRDXULJZZrOrZPMSrIewkVh0MnlKwH/Y7g4ocDY3r5OHrL3eg3uKKFpl7TIeEBIWyfcjfvgKjR7WX7IYWzDwSO6Q0jMCWVie9ZJkcmtHmZy8gRcC/ZBOnsN9glm5mca/4+LnCUvfDvGoPbGT8IHkHRkoLAiWznE5OsMeHVyVbxl9bCS0EEk6v8mIo7XcxbYqTslTgkTiV3RL73QxgPP1jbqXpMLX53JZUiTsxLSLsPJ2wzbEmzOwEY5UU4DGwM1OHC+G8Gey/goxq1UriX7cI63Ug0ZLzcZuB7C5KyGtJOUZZsMZbFOkhsxkGoM1ODAWUHQ5/G+3YlfK9X7nDuP4jnb9f5U94PPT/exNHTJWU3kidzDTNCmO2jZPmI0tRiowc79O7BYF1I3tkf5fiWJmZ6zLUZij+EhS85rH5iGi4XF2MWQNgfQbQwg46Qce8CxPGVEDBADTjAwZMnZiXBYhoOIGCAGiAFiIBUYIDnTa6LnTAwQA8QAMZBmGCA5p5lCUmGh8Zn0DIgBYoAYSC8MkJxJzrSYiQFigBggBtIMAyRnTSEVW/H++S70/BhA8PonqNM+5ysHLTFADBADxEA/Y4DkLAu8WjmcvucyzhzahueWVfMc3H4GIkNq6RVSoz6oD2IgtRggOcsktA/nggFcb66jdUhSJgaIAWKAGEg5BkjOMgiVK+F6+nhfKy3M1FqYlD/lTwwQA4MNAyRnmZw34PS3AQTP70u5tTTYAMb+cNIkBogBYiB+DJCc1fDNgfMBBLs+wEqGc2igEAPEADFADKQYAyRnVQHbW7uZpZ1iMNK6jt+6pswoM2JgcGKA5KwSknwpek8rdpKgaDETA8QAMUAMpBgDJOeKGjz36ge41BNAsPMQFqZYIbSCB6cVTL1Sr8QAMRAPBoY2OR9sRzAYUP66PsHWhQRPPOBhWeKFGCAGiIHkYGBok3NFDVbWbsXepnZcFyRNz5mhLEZOiAFigBhIAwwMbXLWKUBOCOOaMwelDhP0CJLjEVCulCsxEBsDJGd1Mt7ZzjO1OWBiDxjKiDIiBoiB/sAAyVklZ3mf8+WjTAij58joATFADBADKccAyVkGoXJ8J08Io0XcHxYxn0GcEQPEQCwMkJxlct6GM9/z4otYYOH3nFCIAWKAGOgfDJCc9Z7zt59i78Ya/JwhnZSHdDgB9M8EQDlTzsRAemKA5KwS8dT6D3Dpe3XP8/VPUEeCJkETA8QAMUAMpAgDJGeT4H++ZBVWLqvGVNPntC7T07qkXqgXYoAYGIwYIDmThGkZEwPEADFADKQZBkjOaaaQwWgBsk/0bIgBYoAYiA8DJGeSMy1mYoAYIAaIgTTDAMk5zRRC6zI+65LyoryIAWJgMGJgyJLzo+W/wMTCYlqLNE6IAWKAGCAG0g4DJGeCMu1AORitYPaJ3h0xkCwM1GDnn+ui7LCJ9X2y2nV79ZKcSc4kZ2KAGCAGBiYG/HX46Eo3gj3t2PsLazKc9+qn8pXAXaeiEbj1b1NpUJGcOSgjB+WGZrjPXoMn9HcFUm0qweuHa1eH3B73q8sj23s7OtxyBu72a3A3bk9svbfTJv52YOri3dFo6B2m+xuF6udTOW68mNY6Eg29I7Fsf3ZCZTr++D1o6L0Da5syE1pvXGTo34D3OxViPrAkupwX72mVCfp688AhaJLzQJ0I/ftMBKon0/B799sb4x88Jb+Ba95yuOY9A+nkNXi+aIq/joTK9Y+QzlyDp70DUoxBGNfgluYr/Tt7BVLdEynuY+TkMnVhHfYe2o266sjv4usnfx+WVyaqb+gJ1Ob9NxkYHy+GK7IxvjZL+Tv+UzT0pgE5t41AQ+9wrDmRlVB8jz9xt2yEbG5zJ7TesJ5iYbYU21u7EQx24XR9qaM2LD50HsFgN84drHFU3nlbYrW1b9+TnOMdgOlS3i/IU/f3hvAsr0Bap/ts3m/gyu0bMGRg5u6GdPYa3AdfSj2YhcFQeBt9sdNb4SK4Svyp759F++qau5TJJ8XeV6onqUQ/37tMJVCZSN1YJMj6xv0o1YhVvN6uESh70aknZyE737LEes2aPrzLsuGxwK32fVJfX/oUPcEAuk7+Lo6xW4P3LwcQ7GnFTn8S5pIEy4LknGCBJhWQtm19AtLH1+A5k2APd8sZhfCXpz+QUyP35MqF5Jxc+SqYUT3pG2NQaDu++tCONCLnwTc2SnHgfADBH1uxN16SVUn90r9Xx0HqfdB/ArBEck6AEFMOfn+jHOJ27/9jFMD54VrVCKn5Smgt2d3cDKncDnh+SMcdEv7clyAd6ZTXbuV16rZOSBsWGduy5ITSxr0WYfbaJriF179F95uqIxFhe/eLUULPi/dB+ouuDe1X4D55Aq65Jq84dwektnDYX7Q3qtzmbod0Ql9vJ6SG3xv7JjCk6kBaNxuuF5vhFmF4sWbfbuqXA7zJE09QvYTF9HrpkLMQXuowmYc2fxW6x4/D6pwpuFg8H5hVBZQtQPeEXJRY9L/Ek4eThY8h+GilUnb6Y+jI8elkXICLs6oQnJin+8yI25KcUgRnPY42r/Hz2HJwSM5L3Ki8cCfq5TXl4ai/cTcWvR0lVOyYnLMxrWk01t8arqxV3xqJNZ9LGG8gHQ8W/TAMDVahdr+EpbeGob5d0snGInR/Qf+9SUYVmZjdcRc2a23o/Qk2fzcalW9G9q/8gmkZIJpR489CafM92KjVK/rWJiHf0DcvXM+PwXp1CaDwvXux9uYdqizuxJI9Fl6/fx/OiXHRvkPXZ1OfLHCmYEG5Hjh4+SgW2pSZKhLIfgwg+H0rDqRwSYnkbKOg2IPaKRj6odwrbTE83EVw7e+Ap70T0t59cP3q93BtO6OQ38l91gBX17SjEpeQ3ZomJaHqxAlItb+Hq7ZRWR8+2wZJPwjtyDn3Jbm8+/huYztEuFkN20uHhUFxBpJdiP7VDpnc3fsblTY8vQPSXpHoZWEk5D4RqtclLwV02q9jq4lx7o+bTH3rgFRl0qusg064m6/AfeSIUv5FVcbmvsXAnHz5Su0q7GxVwtpndqzCylrlb3GF6bkx6rLFcVYxAoI0rf7KZqDR3cfneKchOGs+AlMfR7CoBCdz8rDJW4LusiqgpBhbTO2t+VkJumdWIjCpGMe8udjkLcLFRyqBsjIc09qgtvXqA2qbMotw1T8PwaIirJXr8+FkUSVQNAk1pvpt+x8q54CcqyUsuylC36NRuceD8S9IqOwYhYbeEVjxrgV5iLodkXM2ZnaINeGRWNYkYXKtB6VN92L9rWHYfEGCL9RGL4o/F4ldd6PSnJi5517U947A0jeN+gqH7jNQKwwKW3LOQuU3w9Fw824sOi7akIXJezJQfWEUGm6MwWT9GJa88CzRlgS05QC7iEO4b2s+z8C0TaJvo7FRtOWbDOTr+qaQ8zCs/+5O1N+4V5Zx4Z8ysEIYJL0/xVwzQdZ/Iid3XTrWN+9XMX7bcUDfBt37A2fDhvG5g0a5xsZT4sqTnHVK6U/BJ+5ZyyH95Ro8n50wkluoX3649nbC03YmwkuWDkf53YuxCN8L12+FN2zhGa4T2d4m0rMkZz9cB68obTNNAmH5vATpi2vw2BGcZkQctMi2zjV5zSGZiAGkLgXYyU3u2zW4zZ5+g5DLNUhb9INQ1YFIWFs+O6yHXCVpz33Yom2GtujrCr9PaljbnYPVmT7rP0+OpYcb1km4jebPdhUsAMrm4eIDPl0duWiZVgU8XITVun6XZBcjUDYfF316L9kLV04pMGsOWrLU5/hm6P7PQeOkBYpRMalAkbW3pI9es6g/NjnLxHjrXsw0YDQb5RdGyARmGQ53Qs4v34+Nglj3GOXpfXc06s3JZLJ3OQxrPzR6s6XtI9Dww/0o1snVqBMJK6KR89IMrOkdho3NnjButboM/TW2Mabc5L4Nw9omY3t9cpa3qc9q3xq+MxoDXrmsxbr9wXYEgwH0lTiVcXUe75tJX+331PpP0EXP2azw/vt/0JwQNk8J/0aQiDbAVFKUtphDwn5IJ67B85cjkYNSEJfI0o66hr0R0mfXEOHxiufKBNYBaZ5On1bkrIWz10UhUbmMIEObMmq9nuYmSAt0xKj13+5VWwowk69c/pmwwWP21jVyrtP1TdPBG88YZSkbKdcgbbBpu13b1M+TSs4xnm2c4HV9jfq7ieiYUQUUTtQRsxcuTxG6Z1WhO2+cTj65aCmpAiYV4ElTnSUPzARmleOUR3nulglzgBml2CV5USI88xkzcXVKFQITcuGScnBsciUweVJEPc76EIuc1ZByh0VY+D2RkX1PpGcn+uOAnIvlbU6jMdPUf5dfIdTa43qvXG3n1xnwhsorIe2Nn1sQq65MVHKW3FgiogI370b1nqw4Eryiyy3/r3eiofdOPLHJhJ1qxZM3hOFVcl7xrqmsnQwTQs5dOJ3miZb0nEMgNgFjoHz+usjSNnmpobb7IXvHof3KxrVWeb3Vipw0b9TqO63uiL3QprrNHqmZnLVwdqxMcOFZRwtpS4sgHQmvo3vOdEB6Y3vsLHU1DG25NUslVcs1brk9ppC9rIPIULcs+7ZmSJrM4nwdcOQse7wL0JFjHEurx5cbyFaQplgjtgypa2F2XQi8cVKVHLJ+UlLC1915BbInfshmDooAABjrSURBVNHnhUsOefdlrVlrY3SScUmq5ymvNZvWW+XPLDw7oWc7YtFhIGL91vSM9c3GPcT5TXcZjYE3RUh7JBa9rPXF6jWG5yzasyUDK25o67wjsPEf92H+n2IRdXS5KX0bjXJdfxVjyaI9KSFne8/ZmVFnJevEfkZyjgBPYgWcXEXHCGlrW6GO7A6vs+q3X4n3VtuT5JC2HeEL+ajJYiJUbq5P+7/M5MUayFkNZwsCN3umBn3ECGnry5ZshPR6E9yfqUaC3Vq6/JvoIW3FoDERsPw7tT2GulUdmCMQauJZX0PaAjfJIueX8x+3J8ZJBUavVy/jGO/lkLbq4YZxPw6niiND2o2TKoEZM9BoG1rXxqHiYQfyc2VCD04vxS73Q7g6qwIt2V68U7jgNrxm8YzoJKORc/2FjPAeZv2Wq9oseK3Cv07J+dZozDbVp+2V9j2hyUB9fXYs1vYOg+ZRyyHtaAlZsr4syNBGj54lYl34ftR+9xNlD7Np3Tus09hySyo5b1O2USVrzdnYT5MObGSXjN+QnPtR2AlXoBZOtfNwDYToFGRqSNvs+RrkpIS07de5LZ6lrb+Ktsqh6k5Iv40R7u1TWFgl0Gjt1+RmDkPLfYzSNy3xTh+GV7PK3a+bTi5TIwvSOgtZGGRp/32yyPlJj81ac6YPT2tJWA7bGMK0Ww1pF0zUha69cGVOUULa4/XrympIW+cdh+qJeK7I1K7ERZ/4TaWcBe7KLkFg1kwcyxJ169amI35rL9vw82KRsxrWNoSTHdTrgJyVsLZNWNyyLyJ5axga5LYo7TJ71+F+aW10Ts76305rEwloNlEBuW3R5VbYLBLm7MPam1t1ofh4Pefbytauw+nrAQS7PsBKSxmLnRcbsLf5U5x+a0OU87o1+SbvleRsp6CB8LmcbRwZTg0NMi2pKSJ0PNvaYxZ91tZio54sphKY1clhhSaPOSRH5UATqUHNzrYzKELlvUpIXoSF7bxrq2dpZBktCcsmDK3IzYacy3fLW7DcIgqha6OS8W1aXxeRBZFsdxshbfGMlScvD5hDSJQwdWRIe23eYxEhbZekJoj5p+E1vSwlL2abjQM5bF2OlgllwCPT8JrbiyfHlQF+P1oK5luuWRv0Y6o/8rvoJCPKK5nSo1BtSAIUY8ULj5XXLJ7pgJxdatLUeotkLI9NVv74D8XJXPdg7p77sbn3LlQ+G4scYpOz1+yhS15Mlsl1JBZts6s/htz6kBDmeM1Zqsbhztvb59zVZH94ydYWcfKYkrH95Z/t+p/8z0nOMQdv8pUQOWE4eeYzkP52DZ6/WSV0qb8P7enthLTtJbh+9RKkbSeURC47cvyVuh/54yPKlqu6RuXUMYOcwmvZ7iON4XInOqNkjaunjZ25Ak+zXWb5bF34XSFDz4l96mfPyJNhSFbb2pR909q2JbF96nXlnGyRHCYmzlBZyQ/XbO3ktD8qchNltBB8+XxDWSWsfQXu/WI54I+het0nG01heFUHdiHtCKNI3yYH75/9AF3BAHqufIrDr27Ac6/uw0f/8Ulanm4kh5ftQtpFkclacvlZlQgUFuG1rFy85itCy6SKyO1WIlO79DF0P1KJq+NyZD29NnEeMG0OAmW36zULHcQgGYH7JRJWiKSpW6PCW56O3481N+/A+r8a14VDmFND0Ju/GoPSF8T2pLGY+6Y+wUs8W8347r0D6zvGquUysOjrkWj4bqz1oShqQtXmH0ai4Zuxxi1JujHqC4XK1a1UX4XD8j4d8ed/KNaxR2Jt21iU/ykT4ze5Ua5teTJlT4u+hbdoaVupwierGcPwWt+UfdvKNjFlK5V5m5i2lco5OXsxNRTajucozmr18JL2qPuX9eR8br+DcaqTe0j/CfiM5JwAISZSIY7r0jxEy9CsDlDLj4QPxBAHbnzWoRC1nTcqEqwaO0MHlXi+6IRUZwrZCpkV/hHSSV25tk64GxsjD/0IyVchZ8/ZKJ5+1CQz0xpw4e+NB59E65vFgSbyASFyotwVSOYT0Mq3QzoZTjKTZfaixcEjmg5eMWXCy/1IzGUhi3d8gksiDKda8tevtOJATG9Jp/+Q/JP4mRrSjjgkRA1pa6RqwLY7D6eKHgfE/meRBDa9At0PFuE1NUNbKytnaovvQyHwHJwsUn9jkemt/c75qwNyFjKUDyG5C/W31KQw+UCNDBSvtJdrvuFAjRFY2+q2yIZWDiEJHbzR+xMlIWubcQtSuD/ZmPuVcmCJeVtVuIzqLZsSzLRLOQwk6M9C8Yn7sOaG2G+t9u3mKKxpy0ChjsSVulVZaeVMrxEhdqtDSCIOWNEOIRkGQ7uEzKNGH6px4KzwcM/jfYdHrS4+2I4eJ2drq0Zxn04gS+B4IzknUJjhwWE/YFmGsiEGiAFiIAEY8Nfh9LcBBK+3Ym8MghZ7l68HA3ByK9VUdatWT8tWXUQtAe2Nk2tIznEKjIOq/0FKmVPmxAAxYIkBQdBdgqA/xU67+5xfUom5dQcWO5jvlduuLuOjFEeoSM4OlGUJCv4upVYldcLJmhggBmQMiOzqt6Lc0yy+378VP3c0Z6vZ3J2HbM/e7i/ckZwdKYyDoL8AyecQa8QAMUAMeEFyJjnTAyYGiAFigBhIMwyQnNNMIbQY6TUQA8QAMUAMkJxJzrSYiQFigBggBtIMAyTnNFMILWZazMQAMUAMEAMkZ5IzLWZiIPEYWLIDO+tLE19vTF3VYOefo2Tuxvw9SYGGQXpggOTMwZqCCTQ9wM9JKDl6mFr/Abp6Aug5uxvz+nl8zXv1U/mwia5TJGjiOzn47i+5kpz7efLoL8Um7zmZqPx6JDa3WVw+P9Rk+fZ92PzDPag0Xyg/4OVgcUzjBWf6nvqHo7gkiPn8PkcHPiQDp4v3tDo+DSoZz2edA5sU00V/JOeBOJE+8Dvk/6YR+Y+kYhCoE7fDyTpdgB5vO8a/ORYrvos8b3iy/pjAqGf/pkI3iXtmxAUHTvTt34Yz3wcQ/PYT1BkuHrFu18O+dfjwX9rRtb4Fx/Osywi9lY1/EZ/9yxfoWt+OrnXtuPDPb+EVr3158ZvFh84j6OQc5YE4/tnmIRHtIzkPRKAv/RJPv//fmLc0+gQVLyE5Kz/YyTkb01rvRIO4KejCGMzf45Fv6pndPBrrbw2H4Xq/QUzOYSw417dym4+DYw/dv8Qrcz7G1+va0bU2Bjk/8Dr+Lsr9yyG8VfgU/mfJAfx9TTu6lr2FdebrJQ1juQbvXw4g2NOalrd4heWbijHMZw4E+ZOcDQN6gICW5GxtOfuz4dvkhiDS6j5e9ebdPxqbe00krGFkSTZ82nvxSnIO68G/D+fEzVntu2NcUP8U/u03wgP+Al/MWYff+o9G8Zwn4tWFX6Br3cf4t5CnrH62vh1fTJ8efr5eL9r7lz5FTzCAS/9eHb2cVp6vlFMaYYDknEbKiGXNjdv0n7LHLLxm89+izXW3P7D+IGHJP0aiXrsK7uZdWNEsId8QotR5Un+QsCwU+v0J1rdJRvKSvBi//37Ufqer89YIrL2QgWKb6+jEtXOeTRkx6xWyGv/2/Vhz4yfhq+60dvcOQ327aY1UvvLvTrVvw1F/424sett8LV8WKr8ZhoYf7kexE1yEyDkb05rvwcZbylV+DWIdeovJ0JvnwfyOu7Hx5h1qe+3aoJH+aJSbr9yzqldug8Oyap/y37sPa35Q22GrD639On1HkYl2k4+Ty+kfzl+HV3wTFbyWRCPnenwmvObqejysPVt40mtacKG2HV3//L/xS+1zy1c1zH75qP05yc8ektfIgz9exkfPa33ma6y5iN8nHyMkZ8tBnXzB9wnceU/DW7IK3jXnZHL+5ZpVyv8lq5CVd5vbVraMwXpBbjd+iur33Ch8QcJ8OZQ7Eou26eWhTtY37sR67fL5TW7M7xiJht7hqP0/xgvlve/dh9rPx2K2Gh4OXeT+TYbponibei9Y1+t7V/FwN4YuqR+LZTdGYk2TG/m1WfDqDYpqCctuir6NRqVoxwsSKjtGoaF3BFa8q2tvbQbW9g7DxmaPM0NHJsaRWP/dSGz++n7M/lMmJu+/H2vEsyII3oPKC/ei+riEaZuyMHlPBhb9Q6xpj8DSN/Xy1cg5st614i5hc702bbAsK3lR+FcRsh+BNZ9nYNqmTEx7T7R3OBq+G4PJepmFxoUzcq5r7lLu1q029SVUj83n0cg57y1cWN+OC7OfUvUxEa9UfYG/lz+Ft55qR1ftAfyvGPUfOC/uwm7HAZtyz50S7VbuyxbXCfZpXNrUzbpsdE55OcIZyXkgAiXhYW3VY7z1U8zWJzwJ2URM2Opk3XsnqvXeoV+54D3iwnUL+U5uFsR4Nypr9YPXpt7qDNT2DoOxXg8W/TAMDf/IMHrqL9+PjRZkV/z5SDTcuhczDX3JRvmFEWi4MQaFWhv3j5a92ohL37Xvza8yMQ7D5gvGiIHSv9EoN5c3/6/KLMLLt6m3uFUYKqZ64ymrynJtkyli8LwwzIZHXnYvt9cZOcciQVuiikbOUw7JSWCflag4eeBN/P3ZQ3jV7cUb1WKt+ijeMMvU9H9Mo2HJPpzrCYCes34s8r0tXk34SmY5knM/Cjthikw0OW8aK3vNm1udeIx2k7Vzci6UyXkUqg1hxHjqtXuW1ecqkXeYwtxC7+/9FA2992Cu5u2pRBcfOZv74YXSPxOJWuJMaW+DORNabofDeuMo6z1+Dxp678QTEVu/PKi+MQzW+rfTi3ECTwo5y8TdDoWclbXmv/+PhbLXER85d+G0AWvGtidsXFrqmM+ifPuGAZLzQBxQiSZnjZTecwIiu8naihi9cK10o/LCXdisrceG1oXN5BNPvRKWihCvmdSeHSuHpY1etkqAoecOM61R69rRJ89Z93sVS3bkXCjWem/otmdpbTL3Iw7CtUtKs2qD8pm5/7r/ze2Q+2OnFyNWkkLOes9ZhLjXHMIraoZ2fOR8Hu9rBthAHO9ss6Mw8GAzAkjOAxH4A4WctbVebW26Ngvja7NQ2irC2mZSsyMBa9Kf3KysndaeyJTXlz1LPJj/lSA+c73K7+svZMjPFs83/4XWp/u05mx+nrXnrKz1Dg+tTSttUEL2EUZGUsn5TlRvi5SB3B7zkkYc5Ly9tTuJa86r8Eb1F9C8Zpc0MWFrzoNtQmd/jEbjQJYHyZnkDJca1naWCBUHidp45IoHZya1OOqVdZaN2V+ZMrVvjcKSiAxsNaz9dQa8MXWttuGbsaZkNZsB75hE1XpvjMFkQxtUr97ssTquV0seM8vS2kBQwtrmBD+bvoXaaacX4+/iydY2TJjR1pwlNVv7Nx8bvGaX9Cw+dJStXYfT1wMIdn2AlaH+GNvtkmqw9cSnOHNia8pONDPIw7ad5nbz/8EuN5LzQBwMT7Xi144PIanBgbPCqwmg5/JR1Fn2VyUwkQlsSJqymgDsJmsLD1cj53eN9RR/fvues2vPvajvvRvzV2bDJ3vD2fBY9s0LOSFMeNT6BDZR1u+Fx9RfbZ9z7QlT0pRcPgvj9d6lYxINk3Mo+UzUV9G/nrNLTQir/8qYwCYmOU/E1jZNZ3b61r5XX6sP4ZKjfc6m30Ul5/Ce5rDX7MXDDyuJYk73OXc1/c42LLrw38VJYkq2dtfJVbblBjsRsH8mXNrMJf0pJ5JzGighboVnv445h/8bT7/7JUqfegHex3djat3/wxSr4zwXqJOmPAFFSYwJbaW6F5X73Sjc5EZ5031Ye9OUlS3ZTdYW5KySgXkLU/3NEajvHY41TZk6Qo2jXrHH+cO75RD2UrHtSxeq9lmRzBIJK8T2plB43YPS42IL0R1Y/9dM04RsfUKYIovhaNB71Y7JWTMQzFuYRmKzvO3qXsxcqZsc4qg3njVngTNlOSAcXi/8k7qt7OZozLRZl53ZLpYL7oQsa3HIS5MUznAPjZ9ShELbegMm9H24fw9nVeC3vl8qf4/+X/kQkg8nq///bHp4T7P4rXpC2Ne/PhDnCWHVkNfBf2zHAZt+CXnoyfn6qQ0mLITbHPcYteg366A848EAyXmgDqLSRsx5+7+wVD2Q5Ndvf4lpC/7JYnLRec6dh/CvUforDv+wOoSk0EB48ZGob8cY1GoHhYgDLzoyUFiRjZlto9BgCDXHV6/L75Ev4GjQkqpCryOxptlt3GIl+iwfQnIX6kUimSh7ayTWtGWgWE+KOtlEnK1tVT4eEvVnYXaH9nxxAMk9qH4zC54tGVhz0xRqjqfeeMqq/ZMPIdF00nsH6r8TJ6rpDSXTJLrEjeqvtYNkRNt/ivkRGd9euKrVbUmXj0YNEa+b06Kcky3Oyjb/rXgL63R6EJNZn87WPtiOHkdna+/Glz8Kz9nBsaOmdsUz0bKsCVOUpcVcbZQRyZkgiQmSATOxVIhkMyVRbOkeI9AHTB8GOB6n1n+i3AjVvjsqQSdTH6E2NDu4NvJ5pb3BzkP2p4gNcJ0kU9asO3nzDMmZA2/gkfOe+7DR7qrGLWOwsXcY1n5osWZMXfeLrgU5dv0YwPXWHf1/n/NLqnHQusORcbDwmLLm/OWe2zxhj9jqF2wNJWOA5MxBNfAGlbqWvfmb+1D5noTJYs35BQmzj4/BihvifOu7Ufls8izaoTRB9LWvU/+wG3vrU0B4/g3Yu38rfu5oXJcq69Lff4qtjsoTU33FA38XP3ZIzhyUA4+cRXaxfDnGyPAaslhHvjkSay+MRanNOjIniPgnCMqMMiMGUoMBkjPJeUCSMyeM1EwYlDvlTgz0DwZIziRnkjMxQAwQA8RAmmGA5JxmCqFV2j9WKeVMORMDxEA6Y2DIknM6K4Vt46RBDBADxMDQxsAQJ2f17N0fu3H9/AfYGeNkIw6WoT1YqH/qnxggBvoLA0OcnEuxcNkGbD/0KbrEhetdH0Q9Qau/lMLncAIgBogBYmBoY2CIk3NY+XXNXQgG23GAa9BMDCEGiAFigBhIMQZIzqoCSM5hQ4UWO2VBDBADxEBqMUByVsl5Z3sAweuf2FypmFolcZBQ/sQAMUAMDC0MkJxVcpavl4t6KfvQAgYnAuqbGCAGiIHUYYDkLJPzBpz+NoDg+X1cZ1GNFQ7K1A1Kyp6yJwaIAZKzTEbqliqSM40TGifEADFADKQBBkjOshJKsbO9G8FgF77cvxVLF6bgNp00AAOtdVrrxAAxQAykBwZIzhop+n+Hve1iO1VA/jt3MD0UxIFCPRADxAAxMPQwQHI2eM7duNRyCNs3rsLiiqEHBk4A1DkxQAwQA+mBAZKzTM7qmnPnIUzVPGm+ct2JGCAGiAFiIEUYIDnLgl+Fj7qYrU2LOT0sZuqBeiAGiAGSs2oVyfucv/0Ez6XISuJg5GAkBogBYoAY0DBAclbJWD6+kyeEMYRF44wYIAaIgTTAAMlZT868+IKDMg0GpWY585VeFDEwdDFAcpZKsXDtbpwRJ4R9/ym2cnImQRMDxAAxQAykGANDnJzVLG2xt/n78zi9o4aATDEg6SkMXU+BuqfuiYEwBoY4OZdi4bJVWLlkLkmZpEwMEAPEADGQNhgY4uQctlJosVEWxAAxQAwQA+mCAZIzLcW0sRTTZVCwHZygiQFiINUYIDmTnEnOxAAxQAwQA2mGAZJzmikk1dYan0+PgRggBoiB1GMgIeRMRaZekdQBdUAMEAPEwODBQILJeR/OiW1JP3ah6z8O4Tn/4BEUQU9dEgPEADFADPQXBhJMznOxuHYr9ja143owgJ72HbzliWFzrmURA8QAMUAMxImBBJNz2KqSL5LgWdUEZJyA7C+rlM8Jj1XKgrIgBtIPA8klZ97yRHImORMDxAAxQAzEjYEkkTPvR6Ylmn6WKHVCnRADxMBAwUCSyFk9s7p9R9zWwkARHNvJQU4MEAPEADGQLAwkiZyVrO3rzXUkZ4ZziAFigBggBoiBODFAco5TYMmyklgvLXBigBggBogBDQNJIuff4aOuAII95/HRqxuwuIIC1wTOV2KBGCAGiAFiIBYGkkTOXrgWbsVHl7sRFIeSBLtw+nkqI5Yy+D0xQgwQA8QAMSAwkCRyVj3nH7twrmk3ttY+jYU8LYxrLlxCIAaIAWKAGHCEgSSRMxPCaP3S+iUGiAFigBjoKwaSRM478OWPATBbm8DsKzD5O2KHGCAGhjIGkkTO6j7ns/scue9DWQHsOycgYoAYIAaIATMGkkTOpTjcGUCw8xAvvuD6Cg00YoAYIAaIgTgxkCRy9oIXX9ASNFuC/J+YIAaIAWLAGQaSQM5zsfiFo7jUo3jOC+O0Fqg4Z4qjnCgnYoAYIAYGLwYSTM5Klra8t/nbdhz+QylDGTROiAFigBggBoiBODGQYHKei8W1q7B0IUmZFu3gtWipW+qWGCAGko2BBJMzFZZshbF+YowYIAaIgcGPAZJznKEGDorBPyioY+qYGCAGUo0BkjPJmWtBxAAxQAwQA2mGAZJzmikk1dYan0+PgRggBoiB1GOA5ExypsVMDBADxAAxkGYYIDmnmUJosabeYqUOqANigBhINQb+P989C7EvhbE1AAAAAElFTkSuQmCC;" vertex="1" parent="1">
                    <mxGeometry x="73.08" y="379" width="126.92" height="126.4" as="geometry"/>
                </mxCell>
                <mxCell id="11" value="" style="endArrow=none;html=1;entryX=1;entryY=0.75;entryDx=0;entryDy=0;" edge="1" parent="1">
                    <mxGeometry width="50" height="50" relative="1" as="geometry">
                        <mxPoint x="50" y="373.5000000000001" as="sourcePoint"/>
                        <mxPoint x="370" y="370.5" as="targetPoint"/>
                    </mxGeometry>
                </mxCell>
                <mxCell id="12" value="t1" style="rounded=0;whiteSpace=wrap;html=1;" vertex="1" parent="1">
                    <mxGeometry x="80" y="320" width="50" height="30" as="geometry"/>
                </mxCell>
                <mxCell id="13" value="Volume" style="rounded=0;whiteSpace=wrap;html=1;" vertex="1" parent="1">
                    <mxGeometry x="126.92" y="100" width="60" height="20" as="geometry"/>
                </mxCell>
                <mxCell id="14" value="" style="curved=1;endArrow=classic;html=1;exitX=1;exitY=0.5;exitDx=0;exitDy=0;" edge="1" parent="1" source="12">
                    <mxGeometry width="50" height="50" relative="1" as="geometry">
                        <mxPoint x="190" y="240" as="sourcePoint"/>
                        <mxPoint x="120" y="100" as="targetPoint"/>
                        <Array as="points">
                            <mxPoint x="220" y="250"/>
                            <mxPoint x="70" y="120"/>
                        </Array>
                    </mxGeometry>
                </mxCell>
                <mxCell id="15" value="Channel" style="rounded=0;whiteSpace=wrap;html=1;" vertex="1" parent="1">
                    <mxGeometry x="126.92000000000002" y="80" width="60" height="20" as="geometry"/>
                </mxCell>
                <mxCell id="16" value="t2" style="rounded=0;whiteSpace=wrap;html=1;" vertex="1" parent="1">
                    <mxGeometry x="200" y="320" width="50" height="30" as="geometry"/>
                </mxCell>
                <mxCell id="17" value="Volume" style="rounded=0;whiteSpace=wrap;html=1;" vertex="1" parent="1">
                    <mxGeometry x="246.92000000000002" y="100" width="60" height="20" as="geometry"/>
                </mxCell>
                <mxCell id="18" value="" style="curved=1;endArrow=classic;html=1;exitX=1;exitY=0.5;exitDx=0;exitDy=0;" edge="1" parent="1" source="16">
                    <mxGeometry width="50" height="50" relative="1" as="geometry">
                        <mxPoint x="310" y="240" as="sourcePoint"/>
                        <mxPoint x="240" y="100" as="targetPoint"/>
                        <Array as="points">
                            <mxPoint x="340" y="250"/>
                            <mxPoint x="190" y="120"/>
                        </Array>
                    </mxGeometry>
                </mxCell>
                <mxCell id="19" value="Channel" style="rounded=0;whiteSpace=wrap;html=1;" vertex="1" parent="1">
                    <mxGeometry x="246.92000000000002" y="80" width="60" height="20" as="geometry"/>
                </mxCell>
            </root>
        </mxGraphModel>
    </diagram>
</mxfile>